<svg xmlns="http://www.w3.org/2000/svg" width="73" height="100" viewBox="0 0 73 100">
  <metadata><?xpacket begin="﻿" id="W5M0MpCehiHzreSzNTczkc9d"?>
<x:xmpmeta xmlns:x="adobe:ns:meta/" x:xmptk="Adobe XMP Core 5.6-c142 79.160924, 2017/07/13-01:06:39        ">
   <rdf:RDF xmlns:rdf="http://www.w3.org/1999/02/22-rdf-syntax-ns#">
      <rdf:Description rdf:about=""/>
   </rdf:RDF>
</x:xmpmeta>
<?xpacket end="w"?></metadata>
<defs>
    <style>
      .cls-1 {
        fill: #333;
        fill-rule: evenodd;
      }
    </style>
  </defs>
  <path class="cls-1" d="M406.616,8594.46A18.27,18.27,0,1,0,425,8612.73,18.35,18.35,0,0,0,406.616,8594.46Zm11.277,12.66-11.973,13.82a2.552,2.552,0,0,1-1.891.89h-0.062a2.593,2.593,0,0,1-1.872-.8l-6.688-7.01a2.106,2.106,0,0,1,.081-2.99,2.138,2.138,0,0,1,3.008.08l5.411,5.68,10.76-12.43A2.123,2.123,0,1,1,417.893,8607.12Zm-16.42-68.02H393.76a8.157,8.157,0,0,0-16.314,0h-7.713a1.414,1.414,0,0,0-1.419,1.41v4.27a6.143,6.143,0,0,0,6.162,6.13H396.73a6.143,6.143,0,0,0,6.162-6.13v-4.27A1.414,1.414,0,0,0,401.473,8539.1Zm-15.87,3.44a3.435,3.435,0,1,1,3.458-3.44A3.449,3.449,0,0,1,385.6,8542.54Zm19.831,20.73H376.471a1.414,1.414,0,0,1-1.419-1.41v-2.11a1.414,1.414,0,0,1,1.419-1.41H405.2a1.414,1.414,0,0,1,1.419,1.41v2.35A1.173,1.173,0,0,1,405.434,8563.27Zm0,12.04h-29.2a1.174,1.174,0,0,1-1.182-1.17v-2.59a1.181,1.181,0,0,1,1.182-1.17h29.2a1.18,1.18,0,0,1,1.182,1.17v2.59A1.173,1.173,0,0,1,405.434,8575.31Zm0,12.04h-29.2a1.174,1.174,0,0,1-1.182-1.17v-2.59a1.181,1.181,0,0,1,1.182-1.17h29.2a1.18,1.18,0,0,1,1.182,1.17v2.59A1.173,1.173,0,0,1,405.434,8587.35Zm-37.593-24.08H365.6a1.413,1.413,0,0,1-1.418-1.41v-2.11a1.413,1.413,0,0,1,1.418-1.41h2.246a1.414,1.414,0,0,1,1.419,1.41v2.11A1.414,1.414,0,0,1,367.841,8563.27Zm0,12.04H365.6a1.413,1.413,0,0,1-1.418-1.41v-2.11a1.413,1.413,0,0,1,1.418-1.41h2.246a1.414,1.414,0,0,1,1.419,1.41v2.11A1.414,1.414,0,0,1,367.841,8575.31Zm0,12.04H365.6a1.413,1.413,0,0,1-1.418-1.41v-2.11a1.413,1.413,0,0,1,1.418-1.41h2.246a1.414,1.414,0,0,1,1.419,1.41v2.11A1.414,1.414,0,0,1,367.841,8587.35Zm0,12.05H365.6a1.42,1.42,0,0,1-1.418-1.41v-2.12a1.413,1.413,0,0,1,1.418-1.41h2.246a1.414,1.414,0,0,1,1.419,1.41v2.12A1.42,1.42,0,0,1,367.841,8599.4Zm0,12.04H365.6a1.413,1.413,0,0,1-1.418-1.41v-2.12a1.413,1.413,0,0,1,1.418-1.41h2.246a1.414,1.414,0,0,1,1.419,1.41v2.12A1.414,1.414,0,0,1,367.841,8611.44Zm16.687-4.94h-8.294a1.183,1.183,0,0,0-1.182,1.18v2.58a1.183,1.183,0,0,0,1.182,1.18h7.458A22.518,22.518,0,0,1,384.528,8606.5Zm8.341-12.04H376.234a1.183,1.183,0,0,0-1.182,1.18v2.58a1.183,1.183,0,0,0,1.182,1.18H388A23.048,23.048,0,0,1,392.869,8594.46ZM413.236,8548v44.26a21.828,21.828,0,0,1,5.674,2.79V8548a7.078,7.078,0,0,0-7.093-7.05h-5.379v5.41c0,0.07-.008.15-0.012,0.23h5.391A1.414,1.414,0,0,1,413.236,8548Zm-26.6,72.97H359.093a1.413,1.413,0,0,1-1.418-1.41V8548a1.413,1.413,0,0,1,1.418-1.41h5.687c0-.08-0.012-0.16-0.012-0.23v-5.41h-5.675A7.078,7.078,0,0,0,352,8548v71.56a7.084,7.084,0,0,0,7.093,7.05h31.02A21.552,21.552,0,0,1,386.637,8620.97Z" transform="translate(-352 -8531)"/>
</svg>
