<svg xmlns="http://www.w3.org/2000/svg" width="95.97" height="81" viewBox="0 0 95.97 81">
  <metadata><?xpacket begin="﻿" id="W5M0MpCehiHzreSzNTczkc9d"?>
<x:xmpmeta xmlns:x="adobe:ns:meta/" x:xmptk="Adobe XMP Core 5.6-c142 79.160924, 2017/07/13-01:06:39        ">
   <rdf:RDF xmlns:rdf="http://www.w3.org/1999/02/22-rdf-syntax-ns#">
      <rdf:Description rdf:about=""/>
   </rdf:RDF>
</x:xmpmeta>
                                                                                                    
                                                                                                    
                                                                                                    
                                                                                                    
                                                                                                    
                                                                                                    
                                                                                                    
                                                                                                    
                                                                                                    
                                                                                                    
                                                                                                    
                                                                                                    
                                                                                                    
                                                                                                    
                                                                                                    
                                                                                                    
                                                                                                    
                                                                                                    
                                                                                                    
                                                                                                    
                           
<?xpacket end="w"?></metadata>
<defs>
    <style>
      .cls-1 {
        fill: #0ab1b7;
        fill-rule: evenodd;
        opacity: 0.5;
      }
    </style>
  </defs>
  <path id="icon_-_cake" data-name="icon - cake" class="cls-1" d="M1301.17,2187.41h-3.77c0.01-.17.04-0.32,0.04-0.48v-32.69a7.62,7.62,0,0,0-7.6-7.62h-65.73a7.62,7.62,0,0,0-7.6,7.62v32.69c0,0.16.04,0.31,0.05,0.48h-3.77a3.805,3.805,0,0,0,0,7.61h88.38A3.805,3.805,0,0,0,1301.17,2187.41Zm-8.89,0h-70.61a2.543,2.543,0,0,1-.09-0.48v-18.87c0.65-1.24,1.56-2.33,2.81-2.4,3.01-.15,1.58,3.34,4.43,3.34s5.07-2.38,4.91-5.87,0.59-6.63,2.7-6.83c6.75-.63,3.59,6.3,7.44,6.51,3.81,0.21,5.33-1.8,5.54-5.71-0.05-3.13.64-4.29,3.17-4.29a4.059,4.059,0,0,1,3.8,5.24c-0.79,2.7-7.44,19.83,1.59,19.83s3.48-12.06,3.48-12.06-3.96-11.9,2.38-11.74,3.01,10.79,3.01,10.79a2.978,2.978,0,0,0,3.48,3.33,6.078,6.078,0,0,0,5.39-7.14c-0.48-3.33.31-4.28,2.21-4.28,5.23,0,2.49,3.65,5.71,3.65,4.65,0-.47-6.51,8.75-4.86v31.36A2.557,2.557,0,0,1,1292.28,2187.41Zm-17.44-54.06a5.115,5.115,0,0,1-1.56-3.17c-0.32-2.3.65-4.33,2.17-4.54s3,1.48,3.32,3.78a5.209,5.209,0,0,1-.6,3.4,6.9,6.9,0,0,0,4.16-5.69c0.59-5.5-3.94-9.98-7.05-13.09,1.75,7.14-7.04,5.47-6.33,13.01A6.312,6.312,0,0,0,1274.84,2133.35Zm-18.92,0a5.072,5.072,0,0,1-1.57-3.17c-0.32-2.3.65-4.33,2.17-4.54s3,1.48,3.32,3.78a5.209,5.209,0,0,1-.6,3.4,6.913,6.913,0,0,0,4.17-5.69c0.58-5.5-3.95-9.98-7.05-13.09,1.74,7.14-7.05,5.47-6.34,13.01A6.32,6.32,0,0,0,1255.92,2133.35Zm-18.93,0a5.123,5.123,0,0,1-1.57-3.17c-0.31-2.3.66-4.33,2.17-4.54s3.01,1.48,3.32,3.78a5.148,5.148,0,0,1-.6,3.4,6.9,6.9,0,0,0,4.17-5.69c0.58-5.5-3.95-9.98-7.05-13.09,1.74,7.14-7.05,5.47-6.34,13.01A6.32,6.32,0,0,0,1236.99,2133.35Zm42.64,5.02a1.272,1.272,0,0,0-1.27-1.27h-5.23a1.263,1.263,0,0,0-1.26,1.27v9.2h7.76v-9.2Zm-37.54,0a1.272,1.272,0,0,0-1.27-1.27h-5.23a1.27,1.27,0,0,0-1.26,1.27v9.2h7.76v-9.2Zm18.77,0a1.272,1.272,0,0,0-1.27-1.27h-5.23a1.263,1.263,0,0,0-1.26,1.27v9.2h7.76v-9.2Z" transform="translate(-1209 -2114.03)"/>
</svg>
