<svg xmlns="http://www.w3.org/2000/svg" width="35.5" height="25" viewBox="0 0 35.5 25">
  <metadata><?xpacket begin="﻿" id="W5M0MpCehiHzreSzNTczkc9d"?>
<x:xmpmeta xmlns:x="adobe:ns:meta/" x:xmptk="Adobe XMP Core 5.6-c142 79.160924, 2017/07/13-01:06:39        ">
   <rdf:RDF xmlns:rdf="http://www.w3.org/1999/02/22-rdf-syntax-ns#">
      <rdf:Description rdf:about=""/>
   </rdf:RDF>
</x:xmpmeta>
<?xpacket end="w"?></metadata>
<defs>
    <style>
      .cls-1 {
        fill: #fff;
        fill-rule: evenodd;
      }
    </style>
  </defs>
  <path id="social_icon_-_youtube" data-name="social icon - youtube" class="cls-1" d="M1485,270.4a4.461,4.461,0,0,0-3.14-3.157c-2.77-.746-13.86-0.746-13.86-0.746s-11.09,0-13.86.746A4.461,4.461,0,0,0,1451,270.4c-0.74,2.785-.74,8.6-0.74,8.6s0,5.81.74,8.6a4.458,4.458,0,0,0,3.14,3.156c2.77,0.747,13.86.747,13.86,0.747s11.09,0,13.86-.747A4.458,4.458,0,0,0,1485,287.6c0.74-2.785.74-8.6,0.74-8.6S1485.74,273.19,1485,270.4Zm-20.63,13.87v-10.55l9.27,5.275Z" transform="translate(-1450.25 -266.5)"/>
</svg>
