<svg xmlns="http://www.w3.org/2000/svg" width="144" height="132" viewBox="0 0 144 132">
  <metadata><?xpacket begin="﻿" id="W5M0MpCehiHzreSzNTczkc9d"?>
<x:xmpmeta xmlns:x="adobe:ns:meta/" x:xmptk="Adobe XMP Core 5.6-c142 79.160924, 2017/07/13-01:06:39        ">
   <rdf:RDF xmlns:rdf="http://www.w3.org/1999/02/22-rdf-syntax-ns#">
      <rdf:Description rdf:about=""/>
   </rdf:RDF>
</x:xmpmeta>                     
<?xpacket end="w"?></metadata>
<defs>
    <style>
      .cls-1 {
        fill: #0ab1b7;
        fill-rule: evenodd;
      }
    </style>
  </defs>
  <path id="icon-photopkg" class="cls-1" d="M946.455,3762.42a37.292,37.292,0,1,0,36.8,37.57c0-.1,0-0.19,0-0.28A37.051,37.051,0,0,0,946.455,3762.42Zm0,64.14a26.856,26.856,0,1,1,26.5-27.05v0.2a26.68,26.68,0,0,1-26.5,26.85h0Zm22.623-89.46H928.222a3.4,3.4,0,0,0-3.377,3.42h0v9.07h47.609v-9.07A3.4,3.4,0,0,0,969.078,3737.1Zm-52.842,4.97H901.375a3.389,3.389,0,0,0-3.377,3.41v4.11h21.609v-4.1A3.4,3.4,0,0,0,916.236,3742.07Zm80.361,10.09H891.587a7.643,7.643,0,0,0-7.6,7.69v60.72a7.64,7.64,0,0,0,7.6,7.7h26.25c-11.117-11.43-15.622-29.48-7.184-47.8a34.854,34.854,0,0,1,16.366-16.82c30.072-14.58,59.618,7.25,59.618,36.06a40.845,40.845,0,0,1-11.561,28.56H996.6a7.634,7.634,0,0,0,7.593-7.69v-60.73a7.634,7.634,0,0,0-7.592-7.69h0Zm2.025,9.95a2.979,2.979,0,0,1-2.954,2.99H985.031a2.98,2.98,0,0,1-2.954-2.99v-1.54a2.976,2.976,0,0,1,2.95-3h10.641a2.978,2.978,0,0,1,2.954,2.99v1.55Zm12.918-27.75-12.8-1.76-8.706,9.6-2.287-12.79-11.776-5.36,11.392-6.14,1.429-12.91,9.327,8.99,12.664-2.62-5.63,11.7Zm9.49,23.84-5.61-4.98-7.26,1.82,2.98-6.91-3.97-6.38,7.46,0.72,4.81-5.76,1.62,7.34,6.94,2.82-6.45,3.83Z" transform="translate(-884 -3705)"/>
</svg>