<svg xmlns="http://www.w3.org/2000/svg" width="67" height="96.44" viewBox="0 0 67 96.44">
  <metadata><?xpacket begin="﻿" id="W5M0MpCehiHzreSzNTczkc9d"?>
<x:xmpmeta xmlns:x="adobe:ns:meta/" x:xmptk="Adobe XMP Core 5.6-c142 79.160924, 2017/07/13-01:06:39        ">
   <rdf:RDF xmlns:rdf="http://www.w3.org/1999/02/22-rdf-syntax-ns#">
      <rdf:Description rdf:about=""/>
   </rdf:RDF>
</x:xmpmeta>
                                                                                                    
                                                                                                    
                                                                                                    
                                                                                                    
                                                                                                    
                                                                                                    
                                                                                                    
                                                                                                    
                                                                                                    
                                                                                                    
                                                                                                    
                                                                                                    
                                                                                                    
                                                                                                    
                                                                                                    
                                                                                                    
                                                                                                    
                                                                                                    
                                                                                                    
                                                                                                    
                           
<?xpacket end="w"?></metadata>
<defs>
    <style>
      .cls-1 {
        fill: #0ab1b7;
        fill-rule: evenodd;
        opacity: 0.5;
      }
    </style>
  </defs>
  <path id="icon_-_choose_activities" data-name="icon - choose activities" class="cls-1" d="M873.476,2130.79l-5.944,6.93a1.261,1.261,0,0,1-.939.44h-0.031a1.263,1.263,0,0,1-.929-0.4l-3.321-3.51a1.059,1.059,0,1,1,1.534-1.46l2.686,2.85,5.343-6.23A1.057,1.057,0,0,1,873.476,2130.79Zm0,12.22-5.944,6.93a1.271,1.271,0,0,1-.939.45h-0.031a1.3,1.3,0,0,1-.929-0.4l-3.321-3.52a1.055,1.055,0,0,1,1.534-1.45l2.686,2.84,5.343-6.23A1.057,1.057,0,0,1,873.476,2143.01Zm0,12.23-5.944,6.92a1.271,1.271,0,0,1-.939.45h-0.031a1.3,1.3,0,0,1-.929-0.4l-3.321-3.51a1.065,1.065,0,0,1,.04-1.5,1.052,1.052,0,0,1,1.494.04l2.686,2.84,5.343-6.23A1.06,1.06,0,0,1,873.476,2155.24Zm0,12.22-5.944,6.92a1.271,1.271,0,0,1-.939.45h-0.031a1.263,1.263,0,0,1-.929-0.4l-3.321-3.51a1.059,1.059,0,1,1,1.534-1.46l2.686,2.84,5.343-6.22a1.041,1.041,0,0,1,1.49-.11A1.056,1.056,0,0,1,873.476,2167.46Zm0,12.22-5.944,6.93a1.3,1.3,0,0,1-.939.44h-0.031a1.263,1.263,0,0,1-.929-0.4l-3.321-3.51a1.059,1.059,0,1,1,1.534-1.46l2.686,2.84,5.343-6.22A1.057,1.057,0,0,1,873.476,2179.68Zm0.49-56.31h22.248a6.172,6.172,0,0,0,6.161-6.18v-4.31a1.422,1.422,0,0,0-1.419-1.42h-7.711a8.155,8.155,0,1,0-16.309,0h-7.712a1.422,1.422,0,0,0-1.418,1.42v4.31A6.172,6.172,0,0,0,873.966,2123.37ZM885.09,2108a3.465,3.465,0,1,1-3.457,3.46A3.459,3.459,0,0,1,885.09,2108Zm-9.644,26.55v2.13a1.415,1.415,0,0,0,1.418,1.42h28.052a1.182,1.182,0,0,0,1.181-1.18v-2.37a1.415,1.415,0,0,0-1.418-1.42H876.864A1.415,1.415,0,0,0,875.446,2134.55Zm30.651,11.94a1.182,1.182,0,0,0-1.181-1.18H876.628a1.182,1.182,0,0,0-1.182,1.18v2.61a1.182,1.182,0,0,0,1.182,1.18h28.288a1.182,1.182,0,0,0,1.181-1.18v-2.61Zm0,14.79v-2.6a1.184,1.184,0,0,0-1.181-1.19H876.628a1.184,1.184,0,0,0-1.182,1.19v2.6a1.184,1.184,0,0,0,1.182,1.19h28.288A1.184,1.184,0,0,0,906.1,2161.28Zm0,9.58a1.184,1.184,0,0,0-1.181-1.19H876.628a1.184,1.184,0,0,0-1.182,1.19v2.61a1.182,1.182,0,0,0,1.182,1.18h28.288a1.182,1.182,0,0,0,1.181-1.18v-2.61Zm0,14.79v-2.61a1.182,1.182,0,0,0-1.181-1.18H876.628a1.182,1.182,0,0,0-1.182,1.18v2.61a1.182,1.182,0,0,0,1.182,1.18h28.288A1.182,1.182,0,0,0,906.1,2185.65Zm5.311-72.32h-5.673v5.45c0,0.08-.008.16-0.012,0.23H911.3a1.424,1.424,0,0,1,1.419,1.43v44.64a0.487,0.487,0,0,1,.11.04v27.48a1.424,1.424,0,0,1-1.418,1.43h-52.82a1.424,1.424,0,0,1-1.418-1.43v-72.16a1.424,1.424,0,0,1,1.418-1.43h5.685c0-.07-0.012-0.15-0.012-0.23v-5.45h-5.673a7.109,7.109,0,0,0-7.091,7.11v72.16a7.109,7.109,0,0,0,7.091,7.11h52.82a7.109,7.109,0,0,0,7.091-7.11v-72.16A7.109,7.109,0,0,0,911.408,2113.33Z" transform="translate(-851.5 -2103.28)"/>
</svg>
