<svg xmlns="http://www.w3.org/2000/svg" width="91" height="89" viewBox="0 0 91 89">
  <metadata><?xpacket begin="﻿" id="W5M0MpCehiHzreSzNTczkc9d"?>
<x:xmpmeta xmlns:x="adobe:ns:meta/" x:xmptk="Adobe XMP Core 5.6-c142 79.160924, 2017/07/13-01:06:39        ">
   <rdf:RDF xmlns:rdf="http://www.w3.org/1999/02/22-rdf-syntax-ns#">
      <rdf:Description rdf:about=""/>
   </rdf:RDF>
</x:xmpmeta>                    
<?xpacket end="w"?></metadata>
<defs>
    <style>
      .cls-1 {
        fill: #0ab1b7;
        fill-rule: evenodd;
      }
    </style>
  </defs>
  <path id="icon-waiver" class="cls-1" d="M1038.93,1754.53a1.475,1.475,0,0,0-1.48-1.47h-29.94a1.475,1.475,0,0,0-1.48,1.47v2.2a1.466,1.466,0,0,0,1.48,1.46h30.19a1.227,1.227,0,0,0,1.23-1.22v-2.44Zm0,12.27a1.221,1.221,0,0,0-1.23-1.22h-30.44a1.221,1.221,0,0,0-1.23,1.22v2.68a1.221,1.221,0,0,0,1.23,1.22h30.44a1.221,1.221,0,0,0,1.23-1.22v-2.68Zm-38.94-12.27a1.476,1.476,0,0,0-1.479-1.47H996.17a1.476,1.476,0,0,0-1.479,1.47v2.2a1.467,1.467,0,0,0,1.479,1.46h2.341a1.467,1.467,0,0,0,1.479-1.46v-2.2Zm0,12.51a1.467,1.467,0,0,0-1.479-1.46H996.17a1.467,1.467,0,0,0-1.479,1.46v2.2a1.467,1.467,0,0,0,1.479,1.46h2.341a1.467,1.467,0,0,0,1.479-1.46v-2.2Zm0,12.51a1.467,1.467,0,0,0-1.479-1.46H996.17a1.467,1.467,0,0,0-1.479,1.46v2.2a1.467,1.467,0,0,0,1.479,1.46h2.341a1.467,1.467,0,0,0,1.479-1.46v-2.2Zm-1.479,11.05H996.17a1.467,1.467,0,0,0-1.479,1.46v2.2a1.467,1.467,0,0,0,1.479,1.46h2.341a1.467,1.467,0,0,0,1.479-1.46v-2.2A1.467,1.467,0,0,0,998.511,1790.6Zm52.049-10.66-3.61-2.83a1.575,1.575,0,0,0-2.18.25l-19.04,23.83a1.519,1.519,0,0,0,.25,2.15l3.61,2.83a1.543,1.543,0,0,0,2.17-.25l19.05-23.82A1.531,1.531,0,0,0,1050.56,1779.94Zm-26.35,24.03-1.97,6.95a0.52,0.52,0,0,0,.76.59l6.38-3.49a0.471,0.471,0,0,0,.22-0.24,0.735,0.735,0,0,0-.22-0.85l-4.1-3.21a0.736,0.736,0,0,0-.89-0.02A0.466,0.466,0,0,0,1024.21,1803.97Zm48.78-44.63a4.243,4.243,0,0,0-1.55-2.46l0.97-1.22a1.587,1.587,0,0,0-.26-2.25l-4.07-3.2a1.633,1.633,0,0,0-2.28.27l-18.96,23.71a1.6,1.6,0,0,0,.27,2.25l4.07,3.2a1.62,1.62,0,0,0,2.27-.27l17.01-21.26a2.693,2.693,0,0,1,.97,1.4,0.7,0.7,0,0,1-.27.61c-0.93.91-11.36,11.69-12.31,14.63a0.776,0.776,0,0,0,.26.85,0.661,0.661,0,0,0,.25.13,0.777,0.777,0,0,0,.98-0.5c0.72-2.19,9.69-11.83,11.92-14A2.242,2.242,0,0,0,1072.99,1759.34Zm-65.73,31.11a1.227,1.227,0,0,0-1.23,1.22v2.69a1.227,1.227,0,0,0,1.23,1.22h19.06l4.1-5.13h-23.16Zm31.67-10.65v-0.49a1.221,1.221,0,0,0-1.23-1.22h-30.44a1.221,1.221,0,0,0-1.23,1.22v2.68a1.221,1.221,0,0,0,1.23,1.22h28.94Zm6.9,36.87a1.475,1.475,0,0,1-1.48,1.47H989.392a1.483,1.483,0,0,1-1.226-.65,1.423,1.423,0,0,1-.253-0.82v-74.35a1.462,1.462,0,0,1,1.479-1.46h54.958a1.466,1.466,0,0,1,1.48,1.46v28.85l5.92-7.39v-21.46a7.373,7.373,0,0,0-7.4-7.32H989.392a7.4,7.4,0,0,0-4.131,1.25,8.005,8.005,0,0,0-1.095.9,7.081,7.081,0,0,0-1.274,1.69,7.175,7.175,0,0,0-.894,3.48h0v74.35h0a7.185,7.185,0,0,0,.894,3.49,7.286,7.286,0,0,0,1.274,1.69,8.005,8.005,0,0,0,1.095.9,7.4,7.4,0,0,0,4.131,1.25h54.958a7.375,7.375,0,0,0,7.4-7.33v-31.56l-5.92,7.4v24.16Zm-51.683-7.36a8.894,8.894,0,0,1,3.621-3.13,1.764,1.764,0,0,1,2.572.7,5.343,5.343,0,0,0,.45,1.09c1.61,2.03,4.47-.12,6.23-0.62,0.96-.28,1.86-0.52,2.65.09a11.272,11.272,0,0,1,.96,1.52,6.593,6.593,0,0,0,2.81,1.98,8.53,8.53,0,0,0,3.82.44c0.59-.05,3.96-1.06,4.23-0.65,1,1.5,3.45.1,2.44-1.41-2.16-3.24-6.37.11-9.39-.98-1.97-.7-2.07-2.7-3.66-3.72-1.44-.93-3.5-0.34-5,0.14a13.264,13.264,0,0,0-2.64,1.1c-0.39.22,0.14,0.93-.11,0.14-0.09-.3-0.06-0.63-0.17-0.92a3.411,3.411,0,0,0-2.87-2.17c-3.384-.41-6.607,2.45-8.382,4.98-1.038,1.49,1.409,2.89,2.439,1.42h0Z" transform="translate(-982 -1735)"/>
</svg>