<svg xmlns="http://www.w3.org/2000/svg" width="99" height="104" viewBox="0 0 99 104">
  <metadata><?xpacket begin="﻿" id="W5M0MpCehiHzreSzNTczkc9d"?>
<x:xmpmeta xmlns:x="adobe:ns:meta/" x:xmptk="Adobe XMP Core 5.6-c142 79.160924, 2017/07/13-01:06:39        ">
   <rdf:RDF xmlns:rdf="http://www.w3.org/1999/02/22-rdf-syntax-ns#">
      <rdf:Description rdf:about=""/>
   </rdf:RDF>
</x:xmpmeta>
                                                                                                    
                                                                                                    
                                                                                                    
                                                                                                    
                                                                                                    
                                                                                                    
                                                                                                    
                                                                                                    
                                                                                                    
                                                                                                    
                                                                                                    
                                                                                                    
                                                                                                    
                                                                                                    
                                                                                                    
                                                                                                    
                                                                                                    
                                                                                                    
                                                                                                    
                                                                                                    
                           
<?xpacket end="w"?></metadata>
<defs>
    <style>
      .cls-1 {
        fill: #333;
        fill-rule: evenodd;
      }
    </style>
  </defs>
  <path id="icon-safety" class="cls-1" d="M395.5,6229.68a28.118,28.118,0,0,0,13.258-3.23l-6.419-21.48a24.6,24.6,0,0,0-13.679,0l-6.419,21.48A28.119,28.119,0,0,0,395.5,6229.68Zm22.892,29.03-5.658-18.95a38.811,38.811,0,0,1-34.375-.31l-5.623,18.83-0.415,1.38a51.878,51.878,0,0,0,5.006,2.06,54.485,54.485,0,0,0,37.857-.56q1.777-.69,3.494-1.5Zm1.407,4.85,2.939,9.84,0.34,1.13c-0.707,2.34-6.364,11.54-27.578,11.54s-26.164-9.2-27.579-11.54l0.494-1.65,2.785-9.32-25.2,12.6v4.96L395.5,6308l49.5-26.88v-4.96Z" transform="translate(-346 -6204)"/>
</svg>
