<svg xmlns="http://www.w3.org/2000/svg" width="82" height="101" viewBox="0 0 82 101">
  <metadata><?xpacket begin="﻿" id="W5M0MpCehiHzreSzNTczkc9d"?>
<x:xmpmeta xmlns:x="adobe:ns:meta/" x:xmptk="Adobe XMP Core 5.6-c142 79.160924, 2017/07/13-01:06:39        ">
   <rdf:RDF xmlns:rdf="http://www.w3.org/1999/02/22-rdf-syntax-ns#">
      <rdf:Description rdf:about=""/>
   </rdf:RDF>
</x:xmpmeta>                    
<?xpacket end="w"?></metadata>
<defs>
    <style>
      .cls-1 {
        fill: #0ab1b7;
        fill-rule: evenodd;
      }
    </style>
  </defs>
  <path id="icon-tracking" class="cls-1" d="M1045.71,2042.66v0.86h0a2.13,2.13,0,0,1-.02.27c-0.01.03-.01,0.06-0.02,0.08a1.056,1.056,0,0,1-.06.19,0.212,0.212,0,0,1-.03.07,1.008,1.008,0,0,1-.12.23,1.638,1.638,0,0,1-.21.25,0.555,0.555,0,0,1-.08.06,1.18,1.18,0,0,1-.18.13c-0.03.02-.07,0.04-0.1,0.06a1.8,1.8,0,0,1-.21.08,1.037,1.037,0,0,0-.1.04,1.861,1.861,0,0,1-.34.04H989.376a1.86,1.86,0,0,1-.338-0.04c-0.034-.01-0.066-0.03-0.1-0.04a1.567,1.567,0,0,1-.214-0.08l-0.1-.06a1.336,1.336,0,0,1-.185-0.13c-0.026-.02-0.053-0.04-0.077-0.06a1.777,1.777,0,0,1-.212-0.25,1.481,1.481,0,0,1-.122-0.23c-0.01-.02-0.019-0.05-0.028-0.07a1.246,1.246,0,0,1-.057-0.19,0.7,0.7,0,0,1-.018-0.08,1.37,1.37,0,0,1-.027-0.27h0v-74.48h0a1.545,1.545,0,0,1,.027-0.27c0-.03.012-0.05,0.018-0.08a1.713,1.713,0,0,1,.057-0.19,0.674,0.674,0,0,0,.028-0.07,2.133,2.133,0,0,1,.122-0.23,1.284,1.284,0,0,1,.212-0.24,0.414,0.414,0,0,1,.077-0.07,1.336,1.336,0,0,1,.185-0.13l0.1-.06a1.567,1.567,0,0,1,.214-0.08l0.1-.03a1.267,1.267,0,0,1,.338-0.05h25.584a26.628,26.628,0,0,1,2.15-5.98H989.376c-0.229,0-.455.02-0.679,0.04a1.329,1.329,0,0,0-.2.02c-0.164.02-.327,0.05-0.487,0.08l-0.193.03c-0.214.05-.426,0.1-0.632,0.17h-0.006c-0.207.07-.409,0.14-0.608,0.23-0.059.02-.117,0.05-0.175,0.07q-0.219.1-.43,0.21l-0.168.09c-0.187.11-.371,0.22-0.547,0.34a7.449,7.449,0,0,0-1.093.92c-0.151.15-.292,0.31-0.429,0.47-0.041.05-.079,0.1-0.119,0.15q-0.147.195-.283,0.39c-0.036.05-.073,0.1-0.108,0.15-0.118.18-.231,0.37-0.333,0.56s-0.192.38-.278,0.58c-0.018.04-.036,0.09-0.054,0.13-0.08.2-.153,0.39-0.216,0.6-0.011.03-.02,0.07-0.03,0.1-0.056.19-.1,0.38-0.146,0.57-0.007.04-.016,0.07-0.023,0.11-0.042.21-.074,0.43-0.1,0.64,0,0.05-.009.1-0.013,0.15-0.02.22-.034,0.45-0.034,0.68h0v74.48h0c0,0.23.014,0.46,0.034,0.69,0,0.04.008,0.09,0.013,0.14,0.024,0.22.056,0.43,0.1,0.64,0.007,0.04.016,0.08,0.023,0.11,0.042,0.19.09,0.38,0.146,0.57,0.01,0.04.019,0.07,0.03,0.11,0.063,0.2.136,0.4,0.216,0.59,0.018,0.05.036,0.09,0.054,0.13a5.98,5.98,0,0,0,.278.58c0.1,0.19.215,0.38,0.333,0.56,0.035,0.05.072,0.1,0.108,0.16,0.091,0.13.185,0.26,0.284,0.38,0.039,0.05.077,0.1,0.118,0.15,0.137,0.16.278,0.33,0.429,0.48a7.382,7.382,0,0,0,1.093.91c0.176,0.12.36,0.23,0.547,0.34l0.168,0.09c0.14,0.07.284,0.14,0.43,0.21a1.423,1.423,0,0,1,.175.08c0.2,0.08.4,0.16,0.61,0.22h0c0.208,0.07.42,0.12,0.635,0.17a1.352,1.352,0,0,1,.193.04c0.16,0.03.323,0.05,0.487,0.07l0.2,0.03q0.336,0.03.679,0.03h54.864c0.23,0,.45-0.01.68-0.03l0.2-.03c0.16-.02.32-0.04,0.48-0.07a1.416,1.416,0,0,1,.2-0.04c0.21-.05.42-0.1,0.63-0.17h0a6.316,6.316,0,0,0,.61-0.22,1.417,1.417,0,0,1,.18-0.08c0.14-.07.29-0.14,0.43-0.21,0.05-.03.11-0.06,0.16-0.09,0.19-.11.38-0.22,0.55-0.34a7.307,7.307,0,0,0,1.09-.91,4.775,4.775,0,0,0,.43-0.48l0.12-.15c0.1-.12.2-0.25,0.29-0.38,0.03-.06.07-0.11,0.1-0.16,0.12-.18.23-0.37,0.34-0.56a5.139,5.139,0,0,0,.27-0.58c0.02-.04.04-0.08,0.06-0.13,0.08-.19.15-0.39,0.22-0.59,0.01-.04.01-0.07,0.02-0.11q0.09-.285.15-0.57a0.359,0.359,0,0,0,.02-0.11,4.491,4.491,0,0,0,.1-0.64c0.01-.05.01-0.1,0.02-0.14q0.03-.345.03-0.69h0v-45.54a26.207,26.207,0,0,1-5.91,1.92v42.76Zm-0.04-61.87v5.3a13.466,13.466,0,0,0-5.02-25.88,13.247,13.247,0,0,0-11.76,7.25h5.64a8.576,8.576,0,0,1,6.12-2.58,8.72,8.72,0,0,1,8.66,8.77A8.814,8.814,0,0,1,1045.67,1980.79Zm-8.93-7.14a3.915,3.915,0,1,0,3.91-3.97A3.942,3.942,0,0,0,1036.74,1973.65Zm3.91-23.65a23.41,23.41,0,0,0-22.53,17.46h4.82a18.71,18.71,0,0,1,36.46,6.19,18.99,18.99,0,0,1-13.73,18.29v4.8A23.677,23.677,0,0,0,1040.65,1950Zm-33.63,84.58a2,2,0,0,0,1.88,2.14c1.38,0.08,2.89.13,4.55,0.16,0.61-.02,1.72-0.07,2.7-0.11a2,2,0,0,0,1.9-2.01v-4.03a1.987,1.987,0,0,0-1.99-2.01c-1.86.01-4.64,0.01-6.75-.04a1.988,1.988,0,0,0-2.03,1.88C1007.19,2031.91,1007.1,2033.28,1007.02,2034.58Zm-12.875-7.85s-0.041,3.55.041,4.55a3.005,3.005,0,0,0,1.02,1.78c0.006,0.01.012,0.01,0.019,0.02,2.1,1.62,5.015,2.72,10.445,3.25a0.394,0.394,0,0,0,.41-0.53,2.572,2.572,0,0,1-.14-1.07l0.28-4.43a2.909,2.909,0,0,1,.31-1.11,0.4,0.4,0,0,0-.32-0.58h0c-7.536-.63-9.142-2-10.171-2.8a2.123,2.123,0,0,1-.758-1.09,0.4,0.4,0,0,0-.739-0.03A5.753,5.753,0,0,0,994.145,2026.73Zm12.885-19.51c-0.5,1.47,1.85,3.73,5.84,5.98a59.847,59.847,0,0,1,18.51,6.39c4.51,0.68,7.74.34,8.23-1.13,0.8-2.39-5.68-7.32-14.68-10.42S1007.83,2004.83,1007.03,2007.22Zm6.93,13.76a2.016,2.016,0,0,0,1.1,2.64c1.28,0.53,2.69,1.07,4.25,1.64,0.59,0.18,1.66.5,2.6,0.77a1.983,1.983,0,0,0,2.44-1.28l1.28-3.81a2.026,2.026,0,0,0-1.25-2.56c-1.76-.59-4.39-1.5-6.38-2.24a1.972,1.972,0,0,0-2.51,1.12C1014.97,2018.51,1014.45,2019.78,1013.96,2020.98Zm22.65-.21c-1.99.22-5.33-.35-9.03-1.34a0.584,0.584,0,0,0-.73.61,2.9,2.9,0,0,1-.14,1.05l-1.41,4.19a2.757,2.757,0,0,1-.28.6,0.594,0.594,0,0,0,.34.9,31.679,31.679,0,0,0,9.51,1.36c3.69-.03,4.08-1.63,4.08-1.63s1.59-4.61,1.85-5.4a2.618,2.618,0,0,0,.08-1.07,0.582,0.582,0,0,0-.97-0.36A6.031,6.031,0,0,1,1036.61,2020.77Zm-32.34-11.42s-1.17,3.34-1.41,4.31a3.117,3.117,0,0,0,.4,2.03,0.035,0.035,0,0,1,.01.02c1.47,2.22,3.88,4.21,8.85,6.49a0.4,0.4,0,0,0,.56-0.37,2.783,2.783,0,0,1,.21-1.06l1.68-4.1a2.746,2.746,0,0,1,.64-0.95,0.393,0.393,0,0,0-.11-0.65l-0.01-.01c-6.93-3.05-8.01-4.88-8.74-5.96a2.317,2.317,0,0,1-.37-1.28,0.394,0.394,0,0,0-.69-0.27A5.772,5.772,0,0,0,1004.27,2009.35Zm28.18,19.4a37.746,37.746,0,0,1-6.16-1.05,42.269,42.269,0,0,1-6.87.97,0.588,0.588,0,0,0-.5.81,2.829,2.829,0,0,1,.2,1.04v4.43a2.691,2.691,0,0,1-.08.65,0.606,0.606,0,0,0,.62.75,32.093,32.093,0,0,0,9.44-1.82c3.47-1.23,3.33-2.88,3.33-2.88S1032.44,2030.21,1032.45,2028.75Zm-10.28-2a1.862,1.862,0,0,1-.47-0.09c-1.24-.36-2.12-0.62-2.61-0.77l-0.02-.01c-0.32-.12-0.63-0.23-0.94-0.35a41.2,41.2,0,0,1-6.82-2.97,28.928,28.928,0,0,1-5.53-3.26c-5.74.89-9.7,2.71-9.7,4.52,0,1.55,2.942,2.93,7.43,3.75a59.447,59.447,0,0,1,19.56,0c0.46-.09.91-0.18,1.34-0.27C1023.63,2027.12,1022.88,2026.94,1022.17,2026.75Z" transform="translate(-982 -1950)"/>
</svg>