<svg xmlns="http://www.w3.org/2000/svg" width="25" height="25" viewBox="0 0 25 25">
  <metadata><?xpacket begin="﻿" id="W5M0MpCehiHzreSzNTczkc9d"?>
<x:xmpmeta xmlns:x="adobe:ns:meta/" x:xmptk="Adobe XMP Core 5.6-c142 79.160924, 2017/07/13-01:06:39        ">
   <rdf:RDF xmlns:rdf="http://www.w3.org/1999/02/22-rdf-syntax-ns#">
      <rdf:Description rdf:about=""/>
   </rdf:RDF>
</x:xmpmeta>
<?xpacket end="w"?></metadata>
<defs>
    <style>
      .cls-1 {
        fill: #fff;
        fill-rule: evenodd;
      }
    </style>
  </defs>
  <path id="social_icon_-_FB" data-name="social icon - FB" class="cls-1" d="M1478.62,114h-22.24a1.381,1.381,0,0,0-1.38,1.38v22.24a1.381,1.381,0,0,0,1.38,1.38h11.97v-9.681h-3.25v-3.773h3.25v-2.783c0-3.229,1.98-4.987,4.86-4.987a26.719,26.719,0,0,1,2.91.149V121.3h-2c-1.57,0-1.87.744-1.87,1.837v2.409h3.74l-0.49,3.773h-3.25V139h6.37a1.381,1.381,0,0,0,1.38-1.38V115.38A1.381,1.381,0,0,0,1478.62,114Z" transform="translate(-1455 -114)"/>
</svg>
