<svg xmlns="http://www.w3.org/2000/svg" width="67.94" height="100" viewBox="0 0 67.94 100">
  <metadata><?xpacket begin="﻿" id="W5M0MpCehiHzreSzNTczkc9d"?>
<x:xmpmeta xmlns:x="adobe:ns:meta/" x:xmptk="Adobe XMP Core 5.6-c142 79.160924, 2017/07/13-01:06:39        ">
   <rdf:RDF xmlns:rdf="http://www.w3.org/1999/02/22-rdf-syntax-ns#">
      <rdf:Description rdf:about=""/>
   </rdf:RDF>
</x:xmpmeta>
                                                                                                    
                                                                                                    
                                                                                                    
                                                                                                    
                                                                                                    
                                                                                                    
                                                                                                    
                                                                                                    
                                                                                                    
                                                                                                    
                                                                                                    
                                                                                                    
                                                                                                    
                                                                                                    
                                                                                                    
                                                                                                    
                                                                                                    
                                                                                                    
                                                                                                    
                                                                                                    
                           
<?xpacket end="w"?></metadata>
<defs>
    <style>
      .cls-1 {
        fill: #333;
        fill-rule: evenodd;
      }
    </style>
  </defs>
  <path class="cls-1" d="M1580.9,8551.6l-6.09-6.1h-26.06v-6.8a4.241,4.241,0,0,0,1.59-3.3h0a4.39,4.39,0,1,0-8.78,0,4.23,4.23,0,0,0,1.89,3.6v6.6h-12.38a0.43,0.43,0,0,0-.4.4c0,0.1,0,.2.1,0.2l3.7,5.6a0.3,0.3,0,0,1,0,.4l-3.7,5.6a0.471,0.471,0,0,0,.1.6c0.1,0,.1.1,0.2,0.1h12.38v4h-24.16l-6.09,6.1a0.375,0.375,0,0,0,0,.6l6.09,6.1h24.16v54.5a1.155,1.155,0,0,0,1.2,1.2h2.9a1.155,1.155,0,0,0,1.2-1.2v-54.6h14.27c0.1,0,.2,0,0.2-0.1a0.452,0.452,0,0,0,.1-0.6l-3.69-5.6a0.446,0.446,0,0,1,0-.5l3.69-5.6c0-.1.1-0.1,0.1-0.2a0.43,0.43,0,0,0-.4-0.4h-14.27v-4h26.06l6.09-6.1A0.454,0.454,0,0,0,1580.9,8551.6Z" transform="translate(-1513.06 -8531)"/>
</svg>
