<svg xmlns="http://www.w3.org/2000/svg" width="25" height="35" viewBox="0 0 25 35">
  <metadata><?xpacket begin="﻿" id="W5M0MpCehiHzreSzNTczkc9d"?>
<x:xmpmeta xmlns:x="adobe:ns:meta/" x:xmptk="Adobe XMP Core 5.6-c142 79.160924, 2017/07/13-01:06:39        ">
   <rdf:RDF xmlns:rdf="http://www.w3.org/1999/02/22-rdf-syntax-ns#">
      <rdf:Description rdf:about=""/>
   </rdf:RDF>
</x:xmpmeta>
                                                                                                    
                                                                                                    
                                                                                                    
                                                                                                    
                                                                                                    
                                                                                                    
                                                                                                    
                                                                                                    
                                                                                                    
                                                                                                    
                                                                                                    
                                                                                                    
                                                                                                    
                                                                                                    
                                                                                                    
                                                                                                    
                                                                                                    
                                                                                                    
                                                                                                    
                                                                                                    
                           
<?xpacket end="w"?></metadata>
<defs>
    <style>
      .cls-1 {
        fill: #fafafa;
        fill-rule: evenodd;
      }
    </style>
  </defs>
  <path id="icon_-_plan" data-name="icon - plan" class="cls-1" d="M1438.7,134.211a6.394,6.394,0,1,0,6.3,6.394A6.349,6.349,0,0,0,1438.7,134.211Zm3.87,4.429-4.1,4.84a0.89,0.89,0,0,1-.65.311h-0.02a0.85,0.85,0,0,1-.64-0.28l-2.29-2.454a0.747,0.747,0,0,1,.02-1.046,0.72,0.72,0,0,1,1.03.028l1.86,1.985,3.68-4.349a0.723,0.723,0,0,1,1.03-.078A0.755,0.755,0,0,1,1442.57,138.64Zm-5.63-23.8h-2.64a2.8,2.8,0,1,0-5.59,0h-2.64a0.484,0.484,0,0,0-.48.494v1.5a2.123,2.123,0,0,0,2.11,2.143h7.62a2.13,2.13,0,0,0,2.11-2.143v-1.5A0.492,0.492,0,0,0,1436.94,114.835Zm-5.43,1.2a1.2,1.2,0,1,1,1.18-1.2A1.194,1.194,0,0,1,1431.51,116.038Zm6.79,7.257h-9.92a0.492,0.492,0,0,1-.49-0.493v-0.741a0.492,0.492,0,0,1,.49-0.493h9.84a0.484,0.484,0,0,1,.48.493v0.822A0.406,0.406,0,0,1,1438.3,123.3Zm0,4.214h-10a0.415,0.415,0,0,1-.41-0.411v-0.9a0.416,0.416,0,0,1,.41-0.412h10a0.407,0.407,0,0,1,.4.412v0.9A0.406,0.406,0,0,1,1438.3,127.509Zm0,4.215h-10a0.415,0.415,0,0,1-.41-0.412v-0.9a0.414,0.414,0,0,1,.41-0.411h10a0.406,0.406,0,0,1,.4.411v0.9A0.406,0.406,0,0,1,1438.3,131.724Zm-12.88-8.429h-0.76a0.492,0.492,0,0,1-.49-0.493v-0.741a0.492,0.492,0,0,1,.49-0.493h0.76a0.492,0.492,0,0,1,.49.493V122.8A0.492,0.492,0,0,1,1425.42,123.3Zm0,4.214h-0.76a0.492,0.492,0,0,1-.49-0.493v-0.741a0.492,0.492,0,0,1,.49-0.493h0.76a0.492,0.492,0,0,1,.49.493v0.741A0.492,0.492,0,0,1,1425.42,127.509Zm0,4.215h-0.76a0.492,0.492,0,0,1-.49-0.494v-0.74a0.492,0.492,0,0,1,.49-0.493h0.76a0.492,0.492,0,0,1,.49.493v0.74A0.492,0.492,0,0,1,1425.42,131.724Zm0,4.214h-0.76a0.492,0.492,0,0,1-.49-0.493v-0.74a0.492,0.492,0,0,1,.49-0.494h0.76a0.492,0.492,0,0,1,.49.494v0.74A0.492,0.492,0,0,1,1425.42,135.938Zm0,4.214h-0.76a0.492,0.492,0,0,1-.49-0.493v-0.74a0.492,0.492,0,0,1,.49-0.494h0.76a0.492,0.492,0,0,1,.49.494v0.74A0.492,0.492,0,0,1,1425.42,140.152Zm5.72-1.727h-2.84a0.416,0.416,0,0,0-.41.412v0.9a0.415,0.415,0,0,0,.41.411h2.55A8.192,8.192,0,0,1,1431.14,138.425Zm2.86-4.214h-5.7a0.415,0.415,0,0,0-.41.411v0.9a0.415,0.415,0,0,0,.41.412h4.03A8.025,8.025,0,0,1,1434,134.211Zm6.97-16.261v15.492a7.275,7.275,0,0,1,1.94.977V117.95a2.452,2.452,0,0,0-2.43-2.467h-1.84v1.974h1.84A0.491,0.491,0,0,1,1440.97,117.95Zm-9.11,25.539h-9.43a0.493,0.493,0,0,1-.49-0.494V117.95a0.491,0.491,0,0,1,.49-0.493h1.95a0.236,0.236,0,0,1-.01-0.083v-1.891h-1.94a2.452,2.452,0,0,0-2.43,2.467V143a2.452,2.452,0,0,0,2.43,2.467h10.62A7.691,7.691,0,0,1,1431.86,143.489Z" transform="translate(-1420 -112)"/>
</svg>
