<svg xmlns="http://www.w3.org/2000/svg" width="102" height="67" viewBox="0 0 102 67">
  <metadata><?xpacket begin="﻿" id="W5M0MpCehiHzreSzNTczkc9d"?>
<x:xmpmeta xmlns:x="adobe:ns:meta/" x:xmptk="Adobe XMP Core 5.6-c142 79.160924, 2017/07/13-01:06:39        ">
   <rdf:RDF xmlns:rdf="http://www.w3.org/1999/02/22-rdf-syntax-ns#">
      <rdf:Description rdf:about=""/>
   </rdf:RDF>
</x:xmpmeta>                  
<?xpacket end="w"?></metadata>
<defs>
    <style>
      .cls-1 {
        fill: #0ab1b7;
        fill-rule: evenodd;
      }
    </style>
  </defs>
  <path id="icon-wristband" class="cls-1" d="M278.1,2033.08a4.315,4.315,0,0,0,4.1,4.58c3.017,0.17,6.311.28,9.92,0.34,1.334-.04,3.77-0.15,5.909-0.24a4.322,4.322,0,0,0,4.138-4.3v-8.62a4.318,4.318,0,0,0-4.352-4.3c-4.043.02-10.115,0.03-14.719-.08a4.31,4.31,0,0,0-4.425,4.01C278.479,2027.37,278.285,2030.31,278.1,2033.08Zm-28.08-16.79s-0.09,7.59.09,9.73a6.529,6.529,0,0,0,2.223,3.82l0.043,0.03c4.577,3.46,10.932,5.81,22.781,6.96a0.861,0.861,0,0,0,.9-1.14,5.767,5.767,0,0,1-.313-2.3l0.626-9.47a5.831,5.831,0,0,1,.672-2.36,0.856,0.856,0,0,0-.695-1.25h-0.015c-16.432-1.34-19.934-4.28-22.179-5.98A4.7,4.7,0,0,1,252.5,2012a0.864,0.864,0,0,0-1.61-.07A12.1,12.1,0,0,0,250.023,2016.29Zm28.1-41.73c-1.081,3.15,4.04,7.99,12.735,12.79a131.96,131.96,0,0,1,40.388,13.66c9.837,1.47,16.865.74,17.945-2.41,1.749-5.1-12.39-15.65-32.015-22.29S279.873,1969.46,278.125,1974.56Zm15.115,29.43a4.3,4.3,0,0,0,2.395,5.65c2.8,1.12,5.883,2.29,9.28,3.5,1.278,0.38,3.617,1.07,5.673,1.66a4.343,4.343,0,0,0,5.312-2.75l2.794-8.15a4.3,4.3,0,0,0-2.724-5.47c-3.834-1.27-9.584-3.21-13.906-4.79a4.337,4.337,0,0,0-5.492,2.39C295.451,1998.71,294.314,2001.42,293.24,2003.99Zm49.413-.45c-4.351.47-11.635-.75-19.7-2.86a1.272,1.272,0,0,0-1.6,1.3,5.849,5.849,0,0,1-.306,2.25l-3.073,8.97a5.82,5.82,0,0,1-.611,1.27,1.272,1.272,0,0,0,.75,1.93c9.83,2.48,15.54,3.12,20.748,2.91,8.036-.06,8.882-3.5,8.882-3.5s3.471-9.85,4.05-11.54a5.666,5.666,0,0,0,.167-2.29,1.275,1.275,0,0,0-2.111-.78C348.776,2002.14,346.688,2003.1,342.653,2003.54Zm-70.547-24.43s-2.545,7.15-3.069,9.23a6.488,6.488,0,0,0,.866,4.33,0.138,0.138,0,0,0,.029.04c3.209,4.75,8.463,9.01,19.308,13.89a0.864,0.864,0,0,0,1.218-.79,5.829,5.829,0,0,1,.449-2.28l3.665-8.76a5.858,5.858,0,0,1,1.4-2.02,0.855,0.855,0,0,0-.252-1.41,0.013,0.013,0,0,1-.014-0.01c-15.121-6.52-17.481-10.43-19.056-12.76a4.623,4.623,0,0,1-.809-2.73,0.864,0.864,0,0,0-1.5-.58A12.132,12.132,0,0,0,272.106,1979.11Zm61.474,41.51a83.371,83.371,0,0,1-13.449-2.26,92.385,92.385,0,0,1-14.979,2.07,1.274,1.274,0,0,0-1.092,1.75,5.784,5.784,0,0,1,.44,2.22v9.48a5.752,5.752,0,0,1-.168,1.39,1.278,1.278,0,0,0,1.337,1.59c10.109-.8,15.725-2.02,20.586-3.88,7.588-2.64,7.273-6.16,7.273-6.16S333.556,2023.73,333.58,2020.62Zm-22.429-4.28a5.344,5.344,0,0,1-1.032-.19c-2.7-.78-4.617-1.34-5.686-1.67l-0.048-.01c-0.693-.25-1.373-0.49-2.046-0.74a89.422,89.422,0,0,1-14.866-6.36,64.4,64.4,0,0,1-12.077-6.97c-12.521,1.9-21.153,5.8-21.153,9.66,0,3.33,6.417,6.27,16.2,8.03a132.39,132.39,0,0,1,42.665,0c1.01-.18,1.982-0.38,2.916-0.59Q313.488,2016.945,311.151,2016.34Z" transform="translate(-250 -1971)"/>
</svg>