<svg xmlns="http://www.w3.org/2000/svg" width="36" height="36" viewBox="0 0 36 36">
  <metadata><?xpacket begin="﻿" id="W5M0MpCehiHzreSzNTczkc9d"?>
<x:xmpmeta xmlns:x="adobe:ns:meta/" x:xmptk="Adobe XMP Core 5.6-c142 79.160924, 2017/07/13-01:06:39        ">
   <rdf:RDF xmlns:rdf="http://www.w3.org/1999/02/22-rdf-syntax-ns#">
      <rdf:Description rdf:about=""/>
   </rdf:RDF>
</x:xmpmeta>
                                                                                                    
                                                                                                    
                                                                                                    
                                                                                                    
                                                                                                    
                                                                                                    
                                                                                                    
                                                                                                    
                                                                                                    
                                                                                                    
                                                                                                    
                                                                                                    
                                                                                                    
                                                                                                    
                                                                                                    
                                                                                                    
                                                                                                    
                                                                                                    
                                                                                                    
                                                                                                    
                           
<?xpacket end="w"?></metadata>
<defs>
    <style>
      .cls-1 {
        fill: #fafafa;
        fill-rule: evenodd;
      }
    </style>
  </defs>
  <path id="icon_-_attractions" data-name="icon - attractions" class="cls-1" d="M1445.4,308.039l5.43-5.388a0.582,0.582,0,0,0,0-.812l-3.69-3.724a4.378,4.378,0,0,1-6.16-6.224l-3.68-3.724a0.571,0.571,0,0,0-.81,0l-5.43,5.387ZM1430.71,293.9l-15.54,15.436a0.574,0.574,0,0,0-.01.813l3.69,3.724a4.378,4.378,0,1,1,6.16,6.224l3.69,3.724a0.572,0.572,0,0,0,.81,0l15.54-15.437Zm1.64,15.468-1.55,2.2L1430,309l-2.57-.8,2.2-1.556-0.04-2.694,2.16,1.612,2.54-.866-0.86,2.552,1.61,2.159Z" transform="translate(-1415 -288)"/>
</svg>
