<svg xmlns="http://www.w3.org/2000/svg" width="39" height="29.031" viewBox="0 0 39 29.031">
  <metadata><?xpacket begin="﻿" id="W5M0MpCehiHzreSzNTczkc9d"?>
<x:xmpmeta xmlns:x="adobe:ns:meta/" x:xmptk="Adobe XMP Core 5.6-c142 79.160924, 2017/07/13-01:06:39        ">
   <rdf:RDF xmlns:rdf="http://www.w3.org/1999/02/22-rdf-syntax-ns#">
      <rdf:Description rdf:about=""/>
   </rdf:RDF>
</x:xmpmeta>                          
<?xpacket end="w"?></metadata>
<defs>
    <style>
      .cls-1 {
        fill: #0ab1b7;
        fill-rule: evenodd;
      }
    </style>
  </defs>
  <path id="icon_-_FAQ_copy" data-name="icon - FAQ copy" class="cls-1" d="M39,12.425C39,5.56,32.014,0,23.4,0A16.981,16.981,0,0,0,10.6,5.35a0.137,0.137,0,0,0,.12.224q0.879-.089,1.79-0.091c7.76,0,14.053,5.011,14.056,11.2a10.173,10.173,0,0,1-4.1,7.912,0.138,0.138,0,0,0,.081.244c0.288,0.014.577,0.022,0.869,0.022a19.465,19.465,0,0,0,3.348-.292,0.132,0.132,0,0,1,.093.017l5.092,3.055a0.143,0.143,0,0,0,.216-0.133l-0.325-4.532a0.136,0.136,0,0,1,.074-0.13C36.178,20.625,39,16.788,39,12.425ZM12.512,7.856c6.348,0,11.514,4.022,11.516,8.971s-5.161,8.978-11.509,8.98a14.616,14.616,0,0,1-2.553-.225l-0.313-.055a0.151,0.151,0,0,0-.105.019l-0.272.164L6.869,27.157a0.153,0.153,0,0,1-.231-0.142L6.76,25.3l0.04-.561a0.153,0.153,0,0,0-.083-0.147l-0.5-.256C2.954,22.666,1,19.861,1,16.836c0-4.949,5.161-8.978,11.509-8.98m0-1C5.6,6.856,0,11.326,0,16.836c0,3.5,2.258,6.567,5.67,8.348a0.151,0.151,0,0,1,.082.145L5.5,28.886a0.143,0.143,0,0,0,.217.133L9.744,26.6a0.151,0.151,0,0,1,.1-0.02,15.639,15.639,0,0,0,2.673.23c6.912,0,12.513-4.472,12.511-9.983S19.424,6.851,12.512,6.854h0ZM9.694,11.775a5.537,5.537,0,0,1,.633-0.457,4.954,4.954,0,0,1,.736-0.374,4.562,4.562,0,0,1,.846-0.252,4.945,4.945,0,0,1,.98-0.091,4.221,4.221,0,0,1,1.334.2,2.883,2.883,0,0,1,1.011.563,2.468,2.468,0,0,1,.642.882,2.844,2.844,0,0,1,.225,1.146,2.919,2.919,0,0,1-.165,1.04,2.826,2.826,0,0,1-.421.755,3.178,3.178,0,0,1-.558.556q-0.3.232-.574,0.438a4.808,4.808,0,0,0-.472.4,0.839,0.839,0,0,0-.248.441l-0.22,1.1H11.774L11.6,16.854q-0.008-.048-0.012-0.094c0-.032,0-0.064,0-0.095a1.106,1.106,0,0,1,.165-0.607,2.142,2.142,0,0,1,.417-0.476,6.5,6.5,0,0,1,.543-0.418,4.887,4.887,0,0,0,.543-0.433,2.195,2.195,0,0,0,.417-0.521,1.341,1.341,0,0,0,.165-0.681,0.961,0.961,0,0,0-.311-0.752,1.232,1.232,0,0,0-.854-0.279,2.379,2.379,0,0,0-.7.087,2.884,2.884,0,0,0-.48.193c-0.134.071-.251,0.135-0.35,0.194a0.6,0.6,0,0,1-.3.087,0.542,0.542,0,0,1-.5-0.291Zm1.451,9.189a1.313,1.313,0,0,1,.106-0.528,1.342,1.342,0,0,1,.291-0.425,1.393,1.393,0,0,1,.437-0.287,1.411,1.411,0,0,1,.551-0.107,1.378,1.378,0,0,1,.543.107,1.432,1.432,0,0,1,.441.287,1.3,1.3,0,0,1,.4.953,1.335,1.335,0,0,1-.106.532,1.294,1.294,0,0,1-.3.429,1.388,1.388,0,0,1-.441.283,1.424,1.424,0,0,1-.543.1,1.462,1.462,0,0,1-.551-0.1,1.339,1.339,0,0,1-.437-0.284,1.317,1.317,0,0,1-.291-0.429A1.333,1.333,0,0,1,11.146,20.964Z"/>
</svg>