<svg xmlns="http://www.w3.org/2000/svg" width="39" height="29.031" viewBox="0 0 39 29.031">
  <metadata><?xpacket begin="﻿" id="W5M0MpCehiHzreSzNTczkc9d"?>
<x:xmpmeta xmlns:x="adobe:ns:meta/" x:xmptk="Adobe XMP Core 5.6-c142 79.160924, 2017/07/13-01:06:39        ">
   <rdf:RDF xmlns:rdf="http://www.w3.org/1999/02/22-rdf-syntax-ns#">
      <rdf:Description rdf:about=""/>
   </rdf:RDF>
</x:xmpmeta>
                                                                                                    
                                                                                                    
                                                                                                    
                                                                                                    
                                                                                                    
                                                                                                    
                                                                                                    
                                                                                                    
                                                                                                    
                                                                                                    
                                                                                                    
                                                                                                    
                                                                                                    
                                                                                                    
                                                                                                    
                                                                                                    
                                                                                                    
                                                                                                    
                                                                                                    
                                                                                                    
                           
<?xpacket end="w"?></metadata>
<defs>
    <style>
      .cls-1 {
        fill: #fafafa;
        fill-rule: evenodd;
      }
    </style>
  </defs>
  <path id="icon_-_FAQ_copy" data-name="icon - FAQ copy" class="cls-1" d="M154,440.425C154,433.56,147.014,428,138.405,428a16.982,16.982,0,0,0-12.8,5.349,0.136,0.136,0,0,0,.119.224,17.9,17.9,0,0,1,1.791-.09c7.76,0,14.053,5.01,14.055,11.2a10.172,10.172,0,0,1-4.1,7.912,0.137,0.137,0,0,0,.081.244c0.288,0.014.577,0.022,0.869,0.022a19.586,19.586,0,0,0,3.348-.292,0.131,0.131,0,0,1,.093.016l5.093,3.055a0.143,0.143,0,0,0,.216-0.133l-0.325-4.531a0.136,0.136,0,0,1,.073-0.131C151.178,448.625,154,444.788,154,440.425Zm-26.486-4.569c6.348,0,11.514,4.022,11.516,8.971s-5.161,8.978-11.509,8.98a14.611,14.611,0,0,1-2.553-.224l-0.313-.055a0.149,0.149,0,0,0-.105.019l-0.272.164-2.407,1.446a0.153,0.153,0,0,1-.231-0.142l0.122-1.714,0.04-.561a0.153,0.153,0,0,0-.083-0.146l-0.5-.256c-3.263-1.672-5.212-4.477-5.213-7.5,0-4.949,5.161-8.978,11.508-8.98m0-1c-6.912,0-12.513,4.472-12.511,9.982,0,3.5,2.258,6.568,5.67,8.349a0.15,0.15,0,0,1,.082.145l-0.252,3.556a0.143,0.143,0,0,0,.216.133l4.027-2.419a0.149,0.149,0,0,1,.1-0.02,15.673,15.673,0,0,0,2.673.23c6.911,0,12.513-4.472,12.51-9.983s-5.606-9.976-12.518-9.973h0Zm-2.818,4.921a5.555,5.555,0,0,1,.634-0.457,5.064,5.064,0,0,1,.735-0.374,4.609,4.609,0,0,1,.846-0.252,4.947,4.947,0,0,1,.98-0.091,4.236,4.236,0,0,1,1.334.2,2.885,2.885,0,0,1,1.011.563,2.455,2.455,0,0,1,.642.881,2.839,2.839,0,0,1,.225,1.147,2.926,2.926,0,0,1-.165,1.039,2.815,2.815,0,0,1-.421.755,3.188,3.188,0,0,1-.558.556q-0.3.232-.575,0.438a4.8,4.8,0,0,0-.472.4,0.845,0.845,0,0,0-.248.441l-0.219,1.1h-1.669l-0.173-1.267a0.78,0.78,0,0,1-.012-0.094c0-.032,0-0.064,0-0.095a1.108,1.108,0,0,1,.165-0.607,2.139,2.139,0,0,1,.417-0.476,6.372,6.372,0,0,1,.543-0.418,4.829,4.829,0,0,0,.542-0.433,2.178,2.178,0,0,0,.417-0.52,1.342,1.342,0,0,0,.165-0.681,0.961,0.961,0,0,0-.311-0.752,1.232,1.232,0,0,0-.854-0.279,2.372,2.372,0,0,0-.7.087,2.884,2.884,0,0,0-.48.192c-0.134.072-.251,0.135-0.35,0.194a0.6,0.6,0,0,1-.3.087,0.541,0.541,0,0,1-.5-0.292Zm1.452,9.189a1.307,1.307,0,0,1,.106-0.528,1.335,1.335,0,0,1,.291-0.425,1.378,1.378,0,0,1,.436-0.287,1.4,1.4,0,0,1,.551-0.107,1.363,1.363,0,0,1,.543.107,1.433,1.433,0,0,1,.441.286,1.311,1.311,0,0,1,.4.953,1.337,1.337,0,0,1-.106.532,1.3,1.3,0,0,1-.3.429,1.373,1.373,0,0,1-.441.283,1.415,1.415,0,0,1-.543.1,1.456,1.456,0,0,1-.551-0.1,1.321,1.321,0,0,1-.436-0.284,1.307,1.307,0,0,1-.292-0.428A1.337,1.337,0,0,1,126.146,448.964Z" transform="translate(-115 -428)"/>
</svg>
