<svg xmlns="http://www.w3.org/2000/svg" width="38.97" height="39" viewBox="0 0 38.97 39">
  <metadata><?xpacket begin="﻿" id="W5M0MpCehiHzreSzNTczkc9d"?>
<x:xmpmeta xmlns:x="adobe:ns:meta/" x:xmptk="Adobe XMP Core 5.6-c142 79.160924, 2017/07/13-01:06:39        ">
   <rdf:RDF xmlns:rdf="http://www.w3.org/1999/02/22-rdf-syntax-ns#">
      <rdf:Description rdf:about=""/>
   </rdf:RDF>
</x:xmpmeta>
                                                                                                    
                                                                                                    
                                                                                                    
                                                                                                    
                                                                                                    
                                                                                                    
                                                                                                    
                                                                                                    
                                                                                                    
                                                                                                    
                                                                                                    
                                                                                                    
                                                                                                    
                                                                                                    
                                                                                                    
                                                                                                    
                                                                                                    
                                                                                                    
                                                                                                    
                                                                                                    
                           
<?xpacket end="w"?></metadata>
<defs>
    <style>
      .cls-1 {
        fill: #333;
        fill-rule: evenodd;
      }
    </style>
  </defs>
  <path id="icon_-_pricing" data-name="icon - pricing" class="cls-1" d="M1439.4,535h0Zm-11.13,13.583a2.46,2.46,0,0,0,2.78,2.318c2.79,0,7.15-2.286,10.2-5.341,3-3.009,3.63-7.227,1.48-9.375A4.655,4.655,0,0,0,1439.4,535v0.775h0a3.9,3.9,0,0,1,2.77.94l0.01,0.009,0.01,0.009a4.167,4.167,0,0,1,.96,3.7,8.471,8.471,0,0,1-2.45,4.581,21.107,21.107,0,0,1-5.66,4.011,9.956,9.956,0,0,1-3.99,1.1,2.725,2.725,0,0,1-1.07-.182,1.222,1.222,0,0,1-.44-0.294,1.883,1.883,0,0,1-.48-1.031,1.754,1.754,0,0,1,1.18,1.1,2.731,2.731,0,0,0,.67.074,8.579,8.579,0,0,0,3.16-.77l-0.73-3.477a0.31,0.31,0,0,0-.24-0.236l-3.34-.646a19.77,19.77,0,0,1,4.11-6.22,7.745,7.745,0,0,1,5.53-2.671V535h0a8.582,8.582,0,0,0-6.08,2.9,20.443,20.443,0,0,0-4.34,6.614l-5.29-1.022a1.611,1.611,0,0,0-1.45.453l-16.77,16.95a1.611,1.611,0,0,0,0,2.28l10.41,10.355a1.6,1.6,0,0,0,2.27-.02l16.76-16.943a1.622,1.622,0,0,0,.44-1.478l-0.96-4.534a9.7,9.7,0,0,1-3.48.788,4.591,4.591,0,0,1-.87-0.082A1.742,1.742,0,1,1,1428.27,548.585Z" transform="translate(-1405 -535)"/>
</svg>
