<svg xmlns="http://www.w3.org/2000/svg" width="25" height="25" viewBox="0 0 25 25">
  <metadata><?xpacket begin="﻿" id="W5M0MpCehiHzreSzNTczkc9d"?>
<x:xmpmeta xmlns:x="adobe:ns:meta/" x:xmptk="Adobe XMP Core 5.6-c142 79.160924, 2017/07/13-01:06:39        ">
   <rdf:RDF xmlns:rdf="http://www.w3.org/1999/02/22-rdf-syntax-ns#">
      <rdf:Description rdf:about=""/>
   </rdf:RDF>
</x:xmpmeta>
                                                                                                    
                                                                                                    
                                                                                                    
                                                                                                    
                                                                                                    
                                                                                                    
                                                                                                    
                                                                                                    
                                                                                                    
                                                                                                    
                                                                                                    
                                                                                                    
                                                                                                    
                                                                                                    
                                                                                                    
                                                                                                    
                                                                                                    
                                                                                                    
                                                                                                    
                                                                                                    
                           
<?xpacket end="w"?></metadata>
<defs>
    <style>
      .cls-1 {
        fill: #fff;
        fill-rule: evenodd;
      }
    </style>
  </defs>
  <path id="social_icon_-_instagram" data-name="social icon - instagram" class="cls-1" d="M1467.5,319.251c3.34,0,3.73.013,5.05,0.073a6.883,6.883,0,0,1,2.32.431,3.835,3.835,0,0,1,1.44.935,3.892,3.892,0,0,1,.94,1.437,7.075,7.075,0,0,1,.43,2.321c0.06,1.319.07,1.714,0.07,5.052s-0.01,3.733-.07,5.052a7.075,7.075,0,0,1-.43,2.321,3.892,3.892,0,0,1-.94,1.437,3.835,3.835,0,0,1-1.44.935,6.883,6.883,0,0,1-2.32.431c-1.32.06-1.71,0.073-5.05,0.073s-3.73-.013-5.05-0.073a6.883,6.883,0,0,1-2.32-.431,3.835,3.835,0,0,1-1.44-.935,3.892,3.892,0,0,1-.94-1.437,7.075,7.075,0,0,1-.43-2.321c-0.06-1.319-.07-1.714-0.07-5.052s0.01-3.733.07-5.052a7.075,7.075,0,0,1,.43-2.321,3.892,3.892,0,0,1,.94-1.437,3.835,3.835,0,0,1,1.44-.935,6.883,6.883,0,0,1,2.32-.431c1.32-.06,1.71-0.073,5.05-0.073m0-2.252c-3.4,0-3.82.014-5.15,0.075a9.25,9.25,0,0,0-3.04.581,6.1,6.1,0,0,0-2.21,1.442,5.938,5.938,0,0,0-1.44,2.214,9.108,9.108,0,0,0-.59,3.035c-0.06,1.333-.07,1.759-0.07,5.154s0.01,3.821.07,5.154a9.108,9.108,0,0,0,.59,3.035,5.938,5.938,0,0,0,1.44,2.214,6.1,6.1,0,0,0,2.21,1.442,9.25,9.25,0,0,0,3.04.581c1.33,0.061,1.75.075,5.15,0.075s3.82-.014,5.15-0.075a9.25,9.25,0,0,0,3.04-.581,6.1,6.1,0,0,0,2.21-1.442,5.938,5.938,0,0,0,1.44-2.214,9.108,9.108,0,0,0,.59-3.035c0.06-1.333.07-1.759,0.07-5.154s-0.01-3.821-.07-5.154a9.108,9.108,0,0,0-.59-3.035,5.938,5.938,0,0,0-1.44-2.214,6.1,6.1,0,0,0-2.21-1.442,9.25,9.25,0,0,0-3.04-.581c-1.33-.061-1.75-0.075-5.15-0.075h0Zm0,6.081a6.42,6.42,0,1,0,6.42,6.42A6.418,6.418,0,0,0,1467.5,323.08Zm0,10.587a4.167,4.167,0,1,1,4.17-4.167A4.171,4.171,0,0,1,1467.5,333.667Zm8.17-10.84a1.5,1.5,0,1,1-1.5-1.5A1.5,1.5,0,0,1,1475.67,322.827Z" transform="translate(-1455 -317)"/>
</svg>
