<svg xmlns="http://www.w3.org/2000/svg" width="135" height="119" viewBox="0 0 135 119">
  <metadata><?xpacket begin="﻿" id="W5M0MpCehiHzreSzNTczkc9d"?>
<x:xmpmeta xmlns:x="adobe:ns:meta/" x:xmptk="Adobe XMP Core 5.6-c142 79.160924, 2017/07/13-01:06:39        ">
   <rdf:RDF xmlns:rdf="http://www.w3.org/1999/02/22-rdf-syntax-ns#">
      <rdf:Description rdf:about=""/>
   </rdf:RDF>
</x:xmpmeta>
                                                                                                    
                                                                                                    
                                                                                                    
                                                                                                    
                                                                                                    
                                                                                                    
                                                                                                    
                                                                                                    
                                                                                                    
                                                                                                    
                                                                                                    
                                                                                                    
                                                                                                    
                                                                                                    
                                                                                                    
                                                                                                    
                                                                                                    
                                                                                                    
                                                                                                    
                                                                                                    
                           
<?xpacket end="w"?></metadata>
<defs>
    <style>
      .cls-1 {
        fill: #0ab1b7;
        fill-rule: evenodd;
      }
    </style>
  </defs>
  <path id="icon-swagshop" class="cls-1" d="M1448.88,3790.86a4.68,4.68,0,1,0-6.76,4.16v11.77a13.845,13.845,0,0,1-27.69,0v-11.77a4.678,4.678,0,1,0-4.56-.21v11.98a18.4,18.4,0,0,0,36.8,0v-11.98A4.651,4.651,0,0,0,1448.88,3790.86ZM1470.7,3844h-7.15l-1.13-64.98h8.28a1.3,1.3,0,0,1,1.3,1.29v62.4A1.3,1.3,0,0,1,1470.7,3844Zm-46.91-86.13h-16.71v8.23a4.646,4.646,0,0,1-2.55,7.67,4.653,4.653,0,0,1-4.59-7.46v-8.44h-35.06v8.58a4.676,4.676,0,1,1-7.14-.46v-8.12h-18.07a1.291,1.291,0,0,0-1.3,1.27l-1.38,79.01a1.3,1.3,0,0,0,1.3,1.32h54.42l1.05-60.45h31.67l-0.34-19.88A1.3,1.3,0,0,0,1423.79,3757.87Zm-20.32,13.72a2.266,2.266,0,0,1-2.27-2.26V3748.3a18.84,18.84,0,0,0-37.68,0v21.03a2.275,2.275,0,0,1-4.55,0V3748.3a23.39,23.39,0,0,1,46.78,0v21.03A2.268,2.268,0,0,1,1403.47,3771.59Z" transform="translate(-1337 -3725)"/>
</svg>
