<svg xmlns="http://www.w3.org/2000/svg" width="80" height="79.47" viewBox="0 0 80 79.47">
  <metadata><?xpacket begin="﻿" id="W5M0MpCehiHzreSzNTczkc9d"?>
<x:xmpmeta xmlns:x="adobe:ns:meta/" x:xmptk="Adobe XMP Core 5.6-c142 79.160924, 2017/07/13-01:06:39        ">
   <rdf:RDF xmlns:rdf="http://www.w3.org/1999/02/22-rdf-syntax-ns#">
      <rdf:Description rdf:about=""/>
   </rdf:RDF>
</x:xmpmeta>
                                                                                                    
                                                                                                    
                                                                                                    
                                                                                                    
                                                                                                    
                                                                                                    
                                                                                                    
                                                                                                    
                                                                                                    
                                                                                                    
                                                                                                    
                                                                                                    
                                                                                                    
                                                                                                    
                                                                                                    
                                                                                                    
                                                                                                    
                                                                                                    
                                                                                                    
                                                                                                    
                           
<?xpacket end="w"?></metadata>
<defs>
    <style>
      .cls-1 {
        fill: #0ab1b7;
        fill-rule: evenodd;
        opacity: 0.5;
      }
    </style>
  </defs>
  <path id="icon_-_invitations" data-name="icon - invitations" class="cls-1" d="M568.055,2151.6l-10.025-7.34v-10.71l-18.345-18.31H507.02a5.142,5.142,0,0,0-.557.03,0.9,0.9,0,0,0-.162.02,2.7,2.7,0,0,0-.4.06,0.879,0.879,0,0,0-.158.03,4.562,4.562,0,0,0-.518.13h0c-0.17.05-.336,0.12-0.5,0.18l-0.143.06c-0.12.06-.237,0.11-0.353,0.17-0.046.03-.092,0.05-0.137,0.08a4.206,4.206,0,0,0-.449.27,5.809,5.809,0,0,0-.9.73c-0.123.13-.239,0.26-0.351,0.39l-0.1.12c-0.081.1-.158,0.2-0.232,0.31l-0.089.12c-0.1.15-.189,0.3-0.273,0.45s-0.157.31-.228,0.47c-0.014.03-.03,0.07-0.044,0.1-0.065.16-.125,0.32-0.177,0.48-0.009.03-.016,0.06-0.025,0.09-0.045.15-.085,0.3-0.119,0.46a0.682,0.682,0,0,0-.019.08c-0.035.17-.061,0.35-0.08,0.52,0,0.04-.008.08-0.011,0.12-0.017.18-.028,0.36-0.028,0.55v22.97l-10.036,7.37a3.487,3.487,0,0,0-1.433,2.82v12.06c0,0.1.02,0.18,0.026,0.27v22.3a5.7,5.7,0,0,0,5.709,5.68h68.52a5.7,5.7,0,0,0,5.708-5.68v-22.26c0.009-.1.027-0.2,0.027-0.31v-12.06A3.5,3.5,0,0,0,568.055,2151.6Zm-62.245-6.65v-23.69h0a1.171,1.171,0,0,1,.022-0.22c0-.02.009-0.05,0.014-0.07,0.013-.05.029-0.1,0.047-0.15,0.008-.02.015-0.03,0.023-0.05a1.14,1.14,0,0,1,.1-0.19,1.313,1.313,0,0,1,.174-0.2c0.02-.02.042-0.03,0.063-0.05,0.048-.04.1-0.07,0.151-0.11,0.027-.01.054-0.03,0.082-0.04a1.1,1.1,0,0,1,.175-0.07,0.241,0.241,0,0,1,.081-0.02,1.277,1.277,0,0,1,.278-0.04h32.665v13.5h13.506v24.55l-23.852,18.49-23.529-18.42v-13.22Zm58.856,44.1a0.911,0.911,0,0,1-.909.91h-68.52a0.911,0.911,0,0,1-.909-0.91v-31.94a0.907,0.907,0,0,1,.913-0.9,0.92,0.92,0,0,1,.558.19l32.539,25.48a1.608,1.608,0,0,0,1.978,0l32.882-25.49a0.911,0.911,0,0,1,1.468.71v31.95Zm-43.288-48.77h23.885a0.97,0.97,0,0,0,.975-0.97v-1.94a1.166,1.166,0,0,0-1.17-1.16h-23.69a1.166,1.166,0,0,0-1.17,1.16v1.75A1.166,1.166,0,0,0,521.378,2140.28Zm-8.969,0h1.853a1.165,1.165,0,0,0,1.169-1.16v-1.75a1.165,1.165,0,0,0-1.169-1.16h-1.853a1.165,1.165,0,0,0-1.169,1.16v1.75A1.165,1.165,0,0,0,512.409,2140.28Zm8.969,8.39h23.885a0.977,0.977,0,0,0,.975-0.97v-1.94a1.168,1.168,0,0,0-1.17-1.17h-23.69a1.168,1.168,0,0,0-1.17,1.17v1.74A1.174,1.174,0,0,0,521.378,2148.67Zm-8.969,0h1.853a1.173,1.173,0,0,0,1.169-1.17v-1.74a1.167,1.167,0,0,0-1.169-1.17h-1.853a1.167,1.167,0,0,0-1.169,1.17v1.74A1.173,1.173,0,0,0,512.409,2148.67Zm8.969,8.38h23.885a0.97,0.97,0,0,0,.975-0.97v-1.94a1.166,1.166,0,0,0-1.17-1.16h-23.69a1.166,1.166,0,0,0-1.17,1.16v1.75A1.166,1.166,0,0,0,521.378,2157.05Zm-8.969,0h1.853a1.165,1.165,0,0,0,1.169-1.16v-1.75a1.165,1.165,0,0,0-1.169-1.16h-1.853a1.165,1.165,0,0,0-1.169,1.16v1.75A1.165,1.165,0,0,0,512.409,2157.05Zm0-25.15h1.853a1.167,1.167,0,0,0,1.169-1.17v-1.74a1.173,1.173,0,0,0-1.169-1.17h-1.853a1.173,1.173,0,0,0-1.169,1.17v1.74A1.167,1.167,0,0,0,512.409,2131.9Zm8.969,0h15.784v-4.08H521.378a1.174,1.174,0,0,0-1.17,1.17v1.74A1.168,1.168,0,0,0,521.378,2131.9Z" transform="translate(-489.5 -2115.25)"/>
</svg>
