<svg xmlns="http://www.w3.org/2000/svg" width="30.82" height="25" viewBox="0 0 30.82 25">
  <metadata><?xpacket begin="﻿" id="W5M0MpCehiHzreSzNTczkc9d"?>
<x:xmpmeta xmlns:x="adobe:ns:meta/" x:xmptk="Adobe XMP Core 5.6-c142 79.160924, 2017/07/13-01:06:39        ">
   <rdf:RDF xmlns:rdf="http://www.w3.org/1999/02/22-rdf-syntax-ns#">
      <rdf:Description rdf:about=""/>
   </rdf:RDF>
</x:xmpmeta>
<?xpacket end="w"?></metadata>
<defs>
    <style>
      .cls-1 {
        fill: #fff;
        fill-rule: evenodd;
      }
    </style>
  </defs>
  <path id="social_icon_-_twitter" data-name="social icon - twitter" class="cls-1" d="M1462.29,189c11.62,0,17.97-9.618,17.97-17.958,0-.273,0-0.545-0.02-0.816a12.85,12.85,0,0,0,3.16-3.268,12.708,12.708,0,0,1-3.63.994,6.393,6.393,0,0,0,2.78-3.492,12.786,12.786,0,0,1-4.02,1.532,6.322,6.322,0,0,0-10.93,4.317,6.2,6.2,0,0,0,.17,1.439,17.925,17.925,0,0,1-13.02-6.594,6.217,6.217,0,0,0-.86,3.172,6.319,6.319,0,0,0,2.81,5.254,6.279,6.279,0,0,1-2.86-.79v0.081a6.318,6.318,0,0,0,5.07,6.188,6.362,6.362,0,0,1-1.67.222,6.3,6.3,0,0,1-1.18-.114,6.315,6.315,0,0,0,5.9,4.384,12.688,12.688,0,0,1-7.85,2.7,13.051,13.051,0,0,1-1.51-.087,17.924,17.924,0,0,0,9.69,2.835" transform="translate(-1452.59 -164)"/>
</svg>
