<svg xmlns="http://www.w3.org/2000/svg" width="75" height="68" viewBox="0 0 75 68">
  <metadata><?xpacket begin="﻿" id="W5M0MpCehiHzreSzNTczkc9d"?>
<x:xmpmeta xmlns:x="adobe:ns:meta/" x:xmptk="Adobe XMP Core 5.6-c142 79.160924, 2017/07/13-01:06:39        ">
   <rdf:RDF xmlns:rdf="http://www.w3.org/1999/02/22-rdf-syntax-ns#">
      <rdf:Description rdf:about=""/>
   </rdf:RDF>
</x:xmpmeta>                                                                                                              
<?xpacket end="w"?></metadata>
<defs>
    <style>
      .cls-1 {
        fill: #333;
        fill-rule: evenodd;
      }
    </style>
  </defs>
  <path id="icon-parking" class="cls-1" d="M1219.75,6246.04l-2.57-.21-4.08-18.77c-0.11-2.3-1.64-4.07-3.59-4.16l-24.74-2.9-25.28,2.9c-1.95.09-3.48,1.86-3.59,4.16l-4.13,18.77-2.52.21a2.256,2.256,0,0,0-2.25,2.26v20.89h75V6248.3A2.256,2.256,0,0,0,1219.75,6246.04Zm-59.58-18.25,0.05-.47a0.615,0.615,0,0,1,.01-0.14l24.19-2.84,24.35,2.84c0,0.04.01,0.09,0.01,0.14l3.94,18.14-28.02-2.31h-0.49l-27.93,2.31Zm-3.07,35.61a4.34,4.34,0,1,1,4.32-4.34A4.334,4.334,0,0,1,1157.1,6263.4Zm54.8,0a4.34,4.34,0,1,1,4.33-4.34A4.325,4.325,0,0,1,1211.9,6263.4Zm-64.9,8.68v3.53a2.256,2.256,0,0,0,2.25,2.26h2.08v6.96a3.16,3.16,0,0,0,3.15,3.17h5.23a3.169,3.169,0,0,0,3.16-3.17v-6.96h43.26v6.96a3.169,3.169,0,0,0,3.16,3.17h5.23a3.16,3.16,0,0,0,3.15-3.17v-6.96h2.08a2.256,2.256,0,0,0,2.25-2.26v-3.53h-75Z" transform="translate(-1147 -6220)"/>
</svg>