<svg xmlns="http://www.w3.org/2000/svg" width="87.969" height="95" viewBox="0 0 87.969 95">
  <metadata><?xpacket begin="﻿" id="W5M0MpCehiHzreSzNTczkc9d"?>
<x:xmpmeta xmlns:x="adobe:ns:meta/" x:xmptk="Adobe XMP Core 5.6-c142 79.160924, 2017/07/13-01:06:39        ">
   <rdf:RDF xmlns:rdf="http://www.w3.org/1999/02/22-rdf-syntax-ns#">
      <rdf:Description rdf:about=""/>
   </rdf:RDF>
</x:xmpmeta>
                                                                                                    
                                                                                                    
                                                                                                    
                                                                                                    
                                                                                                    
                                                                                                    
                                                                                                    
                                                                                                    
                                                                                                    
                                                                                                    
                                                                                                    
                                                                                                    
                                                                                                    
                                                                                                    
                                                                                                    
                                                                                                    
                                                                                                    
                                                                                                    
                                                                                                    
                                                                                                    
                           
<?xpacket end="w"?></metadata>
<defs>
    <style>
      .cls-1 {
        fill: #333;
        fill-rule: evenodd;
      }
    </style>
  </defs>
  <path class="cls-1" d="M795.742,8533.07a2.053,2.053,0,0,0-2.778-.82l-15.741,8.66a1.145,1.145,0,0,0-.571.77l-1.792,8.38H745.428a1.144,1.144,0,0,0-1.141,1.2l1.511,30.24c4.883,0.9,8.99,2.51,11.546,4.65a13.2,13.2,0,0,1,6.464,11.92v3.1a3.624,3.624,0,0,1,1.82,6.53,5.481,5.481,0,0,1-1.82,9.04v0.18a12.027,12.027,0,0,1-5.461,10.07H780a1.143,1.143,0,0,0,1.142-1.09l3.381-74.65a1.141,1.141,0,0,0-1.143-1.19h-4.334l1.218-5.7a1.145,1.145,0,0,1,.57-0.76l14.092-7.76A2.037,2.037,0,0,0,795.742,8533.07Zm-24.125,32.15H749.084l-0.553-11.07h25.454Zm8.678-11.07s-0.5,11.07-.5,11.07H775.8l2.368-11.07H780.3Zm-28.544,72.84H721.723a10.225,10.225,0,0,1-10.237-10.22h50.5A10.225,10.225,0,0,1,751.751,8626.99Zm0.225-29.07h10.012a11.4,11.4,0,0,0-5.707-10.44c-3.524-3.03-10.951-5.11-19.544-5.11s-16.02,2.08-19.544,5.11a11.4,11.4,0,0,0-5.707,10.44h40.49Zm9.811,17.25h-50.1a3.687,3.687,0,0,1-3.687-3.69h0a3.685,3.685,0,0,1,3.687-3.68h50.1a3.685,3.685,0,0,1,3.687,3.68h0A3.687,3.687,0,0,1,761.787,8615.17Zm1.679-8.72a8.532,8.532,0,0,1-5.518-1.94,5.193,5.193,0,0,0-6.782,0,8.818,8.818,0,0,1-11.036,0,5.194,5.194,0,0,0-6.783,0,8.819,8.819,0,0,1-11.037,0,5.194,5.194,0,0,0-6.783,0,8.536,8.536,0,0,1-5.52,1.94,1.815,1.815,0,1,1,0-3.63,4.991,4.991,0,0,0,3.393-1.26,8.784,8.784,0,0,1,11.037,0,5.2,5.2,0,0,0,6.784,0,8.782,8.782,0,0,1,11.036,0,5.193,5.193,0,0,0,6.782,0,8.782,8.782,0,0,1,11.036,0,4.988,4.988,0,0,0,3.391,1.26A1.815,1.815,0,1,1,763.466,8606.45Z" transform="translate(-708 -8532)"/>
</svg>
