<svg xmlns="http://www.w3.org/2000/svg" width="68" height="100" viewBox="0 0 68 100">
  <metadata><?xpacket begin="﻿" id="W5M0MpCehiHzreSzNTczkc9d"?>
<x:xmpmeta xmlns:x="adobe:ns:meta/" x:xmptk="Adobe XMP Core 5.6-c142 79.160924, 2017/07/13-01:06:39        ">
   <rdf:RDF xmlns:rdf="http://www.w3.org/1999/02/22-rdf-syntax-ns#">
      <rdf:Description rdf:about=""/>
   </rdf:RDF>
</x:xmpmeta>
<?xpacket end="w"?></metadata>
<defs>
    <style>
      .cls-1 {
        fill: #333;
        fill-rule: evenodd;
      }
    </style>
  </defs>
  <path class="cls-1" d="M1546.47,8631h-2.91a1.206,1.206,0,0,1-1.2-1.21v-93.17a1.2,1.2,0,0,1,1.2-1.2h2.91a1.2,1.2,0,0,1,1.2,1.2v93.17A1.206,1.206,0,0,1,1546.47,8631Zm15.56-55.75h-43.86l-6.09-6.13a0.417,0.417,0,0,1,0-.57l6.09-6.12h43.86a0.4,0.4,0,0,1,.33.62l-3.69,5.56a0.409,0.409,0,0,0,0,.45l3.69,5.56A0.4,0.4,0,0,1,1562.03,8575.25Zm-32.1-16.87h43.86l6.09-6.13a0.4,0.4,0,0,0,0-.56l-6.09-6.13h-43.86a0.4,0.4,0,0,0-.33.62l3.69,5.57a0.392,0.392,0,0,1,0,.44l-3.69,5.56A0.4,0.4,0,0,0,1529.93,8558.38Zm19.34-22.96a4.4,4.4,0,1,1-4.39-4.42A4.4,4.4,0,0,1,1549.27,8535.42Z" transform="translate(-1512 -8531)"/>
</svg>
