<svg xmlns="http://www.w3.org/2000/svg" width="39" height="29.031" viewBox="0 0 39 29.031">
  <metadata><?xpacket begin="﻿" id="W5M0MpCehiHzreSzNTczkc9d"?>
<x:xmpmeta xmlns:x="adobe:ns:meta/" x:xmptk="Adobe XMP Core 5.6-c142 79.160924, 2017/07/13-01:06:39        ">
   <rdf:RDF xmlns:rdf="http://www.w3.org/1999/02/22-rdf-syntax-ns#">
      <rdf:Description rdf:about=""/>
   </rdf:RDF>
</x:xmpmeta>
<?xpacket end="w"?></metadata>
<defs>
    <style>
      .cls-1 {
        fill: #333;
        fill-rule: evenodd;
      }
    </style>
  </defs>
  <path id="icon_-_FAQ" data-name="icon - FAQ" class="cls-1" d="M1443,608.425c0-6.865-6.99-12.426-15.6-12.423a16.99,16.99,0,0,0-12.8,5.348,0.138,0.138,0,0,0,.12.225c0.59-.059,1.19-0.09,1.79-0.091,7.76,0,14.06,5.011,14.06,11.2a10.171,10.171,0,0,1-4.11,7.912,0.14,0.14,0,0,0,.09.243c0.28,0.014.57,0.022,0.86,0.022a19.526,19.526,0,0,0,3.35-.292,0.155,0.155,0,0,1,.1.017l5.09,3.055a0.139,0.139,0,0,0,.21-0.133l-0.32-4.532a0.138,0.138,0,0,1,.07-0.131C1440.18,616.625,1443,612.789,1443,608.425Zm-26.49-4.568c6.35,0,11.52,4.021,11.52,8.971s-5.16,8.977-11.51,8.98a14.562,14.562,0,0,1-2.55-.225l-0.32-.055a0.145,0.145,0,0,0-.1.019l-0.27.164-2.41,1.446a0.151,0.151,0,0,1-.23-0.141l0.12-1.714,0.04-.561a0.168,0.168,0,0,0-.08-0.147l-0.5-.256c-3.27-1.672-5.22-4.477-5.22-7.5,0-4.948,5.16-8.977,11.51-8.979m0-1c-6.91,0-12.51,4.472-12.51,9.983,0,3.5,2.26,6.567,5.67,8.348a0.133,0.133,0,0,1,.08.145l-0.25,3.556a0.145,0.145,0,0,0,.22.133l4.02-2.419a0.169,0.169,0,0,1,.11-0.02,15.412,15.412,0,0,0,2.67.23c6.91,0,12.51-4.472,12.51-9.983s-5.61-9.976-12.52-9.973h0Zm-2.82,4.922a5.977,5.977,0,0,1,.64-0.457,5.01,5.01,0,0,1,.73-0.374,4.813,4.813,0,0,1,.85-0.252,4.944,4.944,0,0,1,.98-0.092,4.168,4.168,0,0,1,1.33.2,2.776,2.776,0,0,1,1.01.562,2.48,2.48,0,0,1,.65.882,2.836,2.836,0,0,1,.22,1.146,2.925,2.925,0,0,1-.16,1.039,2.835,2.835,0,0,1-.42.756,3.626,3.626,0,0,1-.56.556c-0.21.154-.4,0.3-0.58,0.437a4.435,4.435,0,0,0-.47.4,0.86,0.86,0,0,0-.25.441l-0.22,1.1h-1.67l-0.17-1.268c0-.032-0.01-0.063-0.01-0.094v-0.1a1.025,1.025,0,0,1,.16-0.606,2.108,2.108,0,0,1,.42-0.477,5.914,5.914,0,0,1,.54-0.417,5.847,5.847,0,0,0,.54-0.433,2.167,2.167,0,0,0,.42-0.521,1.34,1.34,0,0,0,.16-0.681,0.952,0.952,0,0,0-.31-0.752,1.213,1.213,0,0,0-.85-0.279,2.41,2.41,0,0,0-.7.087,3.3,3.3,0,0,0-.48.193c-0.13.071-.25,0.135-0.35,0.193a0.593,0.593,0,0,1-.3.087,0.542,0.542,0,0,1-.5-0.291Zm1.46,9.189a1.321,1.321,0,0,1,.1-0.528,1.375,1.375,0,0,1,.29-0.426,1.474,1.474,0,0,1,.44-0.287,1.4,1.4,0,0,1,.55-0.107,1.415,1.415,0,0,1,.98.394,1.236,1.236,0,0,1,.3.425,1.323,1.323,0,0,1,.11.528,1.349,1.349,0,0,1-.11.531,1.233,1.233,0,0,1-.3.429,1.3,1.3,0,0,1-.44.284,1.368,1.368,0,0,1-.54.1,1.455,1.455,0,0,1-.55-0.1,1.39,1.39,0,0,1-.44-0.283,1.365,1.365,0,0,1-.29-0.429A1.342,1.342,0,0,1,1415.15,616.965Z" transform="translate(-1404 -596)"/>
</svg>
