<svg xmlns="http://www.w3.org/2000/svg" width="27.719" height="14.969" viewBox="0 0 27.719 14.969">
  <metadata><?xpacket begin="﻿" id="W5M0MpCehiHzreSzNTczkc9d"?>
<x:xmpmeta xmlns:x="adobe:ns:meta/" x:xmptk="Adobe XMP Core 5.6-c142 79.160924, 2017/07/13-01:06:39        ">
   <rdf:RDF xmlns:rdf="http://www.w3.org/1999/02/22-rdf-syntax-ns#">
      <rdf:Description rdf:about=""/>
   </rdf:RDF>
</x:xmpmeta>
                                                                                                    
                                                                                                    
                                                                                                    
                                                                                                    
                                                                                                    
                                                                                                    
                                                                                                    
                                                                                                    
                                                                                                    
                                                                                                    
                                                                                                    
                                                                                                    
                                                                                                    
                                                                                                    
                                                                                                    
                                                                                                    
                                                                                                    
                                                                                                    
                                                                                                    
                                                                                                    
                           
<?xpacket end="w"?></metadata>
<defs>
    <style>
      .cls-1 {
        fill: #0ab1b7;
        fill-rule: evenodd;
      }
    </style>
  </defs>
  <path id="Shape_6_copy" data-name="Shape 6 copy" class="cls-1" d="M249.083,10.025h18.65a25.648,25.648,0,0,0-6.395,4.825,0.993,0.993,0,0,0,0,1.391,0.961,0.961,0,0,0,1.372,0c5.564-5.625,10.478-6.162,11.769-6.214l0.2,0c0.142,0,.226-0.005.245-0.006l0.021,0,0.039-.005,0.056-.008L275.081,10l0.055-.014,0.034-.011,0.055-.02c0.011,0,.019-0.008.03-0.012l0.057-.027,0.024-.014c0.017-.01.038-0.021,0.055-0.033s0.014-.01.022-0.015l0.052-.038,0.021-.018a0.518,0.518,0,0,0,.048-0.043l0.021-.02,0.041-.045,0.021-.025,0.036-.046a0.2,0.2,0,0,0,.019-0.031c0.01-.015.02-0.03,0.029-0.046A0.243,0.243,0,0,0,275.72,9.5a0.427,0.427,0,0,0,.024-0.047c0-.012.01-0.025,0.016-0.038s0.013-.031.019-0.048,0.008-.027.013-0.04a0.321,0.321,0,0,0,.014-0.051,0.317,0.317,0,0,0,.009-0.042c0-.018.007-0.035,0.01-0.052a0.309,0.309,0,0,0,0-.043c0-.018,0-0.036,0-0.054s0-.011,0-0.017,0-.02,0-0.03,0-.022,0-0.032,0-.012,0-0.018,0-.034,0-0.051a0.184,0.184,0,0,0-.006-0.046,0.415,0.415,0,0,0-.008-0.049A0.205,0.205,0,0,0,275.8,8.8a0.257,0.257,0,0,0-.012-0.044,0.392,0.392,0,0,0-.015-0.048c0-.013-0.009-0.025-0.014-0.038l-0.021-.049c0-.011-0.012-0.023-0.017-0.033a0.416,0.416,0,0,0-.027-0.05l-0.018-.03-0.034-.049a0.2,0.2,0,0,0-.019-0.025,0.567,0.567,0,0,0-.038-0.046l-0.021-.024-0.043-.043L275.5,8.3c-0.015-.013-0.029-0.026-0.046-0.038s-0.018-.013-0.025-0.019a0.6,0.6,0,0,0-.05-0.034l-0.027-.017a0.5,0.5,0,0,0-.054-0.029,0.217,0.217,0,0,0-.029-0.014c-0.017-.009-0.036-0.017-0.055-0.024l-0.031-.011L275.127,8.1l-0.033-.009-0.06-.012L275,8.068l-0.061-.006-0.015,0c-0.018,0-.1-0.006-0.242-0.006h-0.034l-0.172,0c-1.3-.051-6.207-0.593-11.766-6.214a0.961,0.961,0,0,0-1.372,0,0.991,0.991,0,0,0,0,1.39,25.609,25.609,0,0,0,6.395,4.825h-18.65A0.983,0.983,0,0,0,249.083,10.025Z" transform="translate(-248.125 -1.563)"/>
</svg>
