<svg xmlns="http://www.w3.org/2000/svg" width="92" height="88" viewBox="0 0 92 88">
  <metadata><?xpacket begin="﻿" id="W5M0MpCehiHzreSzNTczkc9d"?>
<x:xmpmeta xmlns:x="adobe:ns:meta/" x:xmptk="Adobe XMP Core 5.6-c142 79.160924, 2017/07/13-01:06:39        ">
   <rdf:RDF xmlns:rdf="http://www.w3.org/1999/02/22-rdf-syntax-ns#">
      <rdf:Description rdf:about=""/>
   </rdf:RDF>
</x:xmpmeta>                        
<?xpacket end="w"?></metadata>
<defs>
    <style>
      .cls-1 {
        fill: #0ab1b7;
        fill-rule: evenodd;
        opacity: 0.5;
      }
    </style>
  </defs>
  <path id="icon_-_party" data-name="icon - party" class="cls-1" d="M1638.81,2131.92l-3.01,1.88-3.26-1.41,0.86,3.44-2.35,2.66,3.55,0.25,1.8,3.05,1.33-3.29,3.47-.77-2.73-2.28Zm-54.2,26.28-2.11,2.84-3.56-.12,2.07,2.89-1.22,3.33,3.39-1.06,2.8,2.18,0.03-3.55,2.95-1.98-3.37-1.13Zm11.43-53.03,2.78-.87,2.29,1.79,0.03-2.91,2.41-1.63-2.76-.92-0.8-2.8-1.74,2.34-2.91-.1,1.69,2.37Zm-31.56,1.23,1.83,4.92,2.81-4.44,5.25-.22-3.37-4.03,1.42-5.06-4.88,1.96-4.38-2.91,0.35,5.24-4.13,3.25Zm55.98,14.7,3.28,5.44,2.7,4.48,1.92-4.87,2.33-5.91,6.21-1.43,5.1-1.18-4.04-3.32-4.91-4.04,0.55-6.33,0.45-5.21-4.42,2.81-5.37,3.41-5.86-2.48-4.82-2.04,1.31,5.06,1.59,6.16-4.17,4.79-3.44,3.95,5.23,0.32Zm-1.13-8.79-1.94-7.46,7.12,3.01,6.51-4.15-0.67,7.68,5.96,4.91-7.52,1.74-2.83,7.17-3.99-6.61-7.71-.47Zm-51.88,37.86,0.84-4.01,0.81-3.84-3.54,1.7-3.71,1.77-3.56-2.04-3.41-1.95,0.53,3.89,0.54,4.06-3.04,2.75-2.91,2.63,3.86,0.71,4.04,0.73,1.69,3.74,1.61,3.58,1.86-3.45,1.95-3.61,4.08-.44,3.91-.42-2.71-2.84Zm-3.66,4.85-2.44,4.5-2.1-4.67-5.04-.92,3.8-3.43-0.68-5.07,4.44,2.54,4.62-2.21-1.04,5.01,3.53,3.7Zm32.69-25.12a0.65,0.65,0,0,0,1.24-.38l-8-32.58a2.128,2.128,0,0,0-.08-0.27,2.54,2.54,0,0,0-4.77,1.75Zm-40.51-8.02,35.27,13.15a0.657,0.657,0,0,0,.81-0.32,0.639,0.639,0,0,0-.3-0.86l-33.77-16.62a1.627,1.627,0,0,0-.23-0.11A2.541,2.541,0,1,0,1555.97,2121.88Zm35.32,7.6a0.337,0.337,0,0,0,.44.05,0.333,0.333,0,0,0,.08-0.46L1579.05,2111l-0.01-.01a2.2,2.2,0,0,0-.14-0.18,1.783,1.783,0,1,0-2.62,2.42Zm-22.4,6.09h-0.02a1.927,1.927,0,0,0-.24.01,1.779,1.779,0,0,0,.45,3.53l20.39-2.57a0.332,0.332,0,0,0,.29-0.32,0.341,0.341,0,0,0-.33-0.34Zm31.06-7.89a0.332,0.332,0,0,0,.43-0.19l7.31-19.1,0.01-.02c0.02-.07.05-0.15,0.07-0.23a1.784,1.784,0,0,0-3.48-.79l-4.54,19.95A0.317,0.317,0,0,0,1599.95,2127.68Zm20.26,12.43-19.51,22.16,5.57,4,16.35-18.58Zm6.04,18.98-2.37-7.46-14.72,16.72,2.15,1.55,3.41,2.45,11.57-13.14Zm4.96,15.57-5.15,5.85,2.76,1.98a2.584,2.584,0,0,0,3.98-2.87Zm-3.66-11.52-9.94,11.29,5.56,4,6.79-7.71Zm-9.59-30.08a2.592,2.592,0,0,0-2.93-1.76c-2.74.47-7.85,2.07-15.07,7.28s-10.32,9.57-11.62,12.02a2.589,2.589,0,0,0,.76,3.33l8.71,6.26,21.14-24.02Z" transform="translate(-1550 -2095)"/>
</svg>