<svg xmlns="http://www.w3.org/2000/svg" width="86" height="75" viewBox="0 0 86 75">
  <metadata><?xpacket begin="﻿" id="W5M0MpCehiHzreSzNTczkc9d"?>
<x:xmpmeta xmlns:x="adobe:ns:meta/" x:xmptk="Adobe XMP Core 5.6-c142 79.160924, 2017/07/13-01:06:39        ">
   <rdf:RDF xmlns:rdf="http://www.w3.org/1999/02/22-rdf-syntax-ns#">
      <rdf:Description rdf:about=""/>
   </rdf:RDF>
</x:xmpmeta>                          
<?xpacket end="w"?></metadata>
<defs>
    <style>
      .cls-1 {
        fill: #0ab1b7;
        fill-rule: evenodd;
      }
    </style>
  </defs>
  <path id="icon-book" class="cls-1" d="M282.01,1744.99h-3.939a1.376,1.376,0,0,1-1.369-1.38v-11.24a1.374,1.374,0,0,1,1.369-1.37h3.939a1.374,1.374,0,0,1,1.369,1.37v11.24A1.376,1.376,0,0,1,282.01,1744.99ZM293.92,1768h-6.533a1.3,1.3,0,0,1-1.3-1.3v-6.56a1.3,1.3,0,0,1,1.3-1.3h6.533a1.3,1.3,0,0,1,1.295,1.3v6.56A1.3,1.3,0,0,1,293.92,1768Zm13.38,0h-6.533a1.3,1.3,0,0,1-1.3-1.3v-6.56a1.3,1.3,0,0,1,1.3-1.3H307.3a1.3,1.3,0,0,1,1.3,1.3v6.56A1.3,1.3,0,0,1,307.3,1768Zm13.38,0h-6.533a1.3,1.3,0,0,1-1.3-1.3v-6.56a1.3,1.3,0,0,1,1.3-1.3h6.533a1.3,1.3,0,0,1,1.294,1.3v6.56A1.3,1.3,0,0,1,320.68,1768Zm-40.14,11.41h-6.533a1.3,1.3,0,0,1-1.3-1.3v-6.56a1.3,1.3,0,0,1,1.3-1.3h6.533a1.3,1.3,0,0,1,1.295,1.3v6.56A1.3,1.3,0,0,1,280.54,1779.41Zm13.38,0h-6.533a1.3,1.3,0,0,1-1.3-1.3v-6.56a1.3,1.3,0,0,1,1.3-1.3h6.533a1.3,1.3,0,0,1,1.295,1.3v6.56A1.3,1.3,0,0,1,293.92,1779.41Zm23.116,0h3.644a1.3,1.3,0,0,0,1.294-1.3v-6.56a1.3,1.3,0,0,0-1.294-1.3h-6.533a1.3,1.3,0,0,0-1.3,1.3v3.43Zm-15.184-1.51a5.844,5.844,0,0,1,5.85-5.71,6.649,6.649,0,0,1,.893.07v-0.71a1.3,1.3,0,0,0-1.3-1.3h-6.533a1.3,1.3,0,0,0-1.3,1.3v6.56a1.3,1.3,0,0,0,1.3,1.3h1.243A5.96,5.96,0,0,1,301.852,1777.9Zm1.875,4.49h-2.96a1.3,1.3,0,0,0-1.3,1.3v6.56a1.3,1.3,0,0,0,1.3,1.3H307.3a1.3,1.3,0,0,0,1.3-1.3v-2.7Zm-23.187,9.16h-6.533a1.3,1.3,0,0,1-1.3-1.3v-6.56a1.3,1.3,0,0,1,1.3-1.3h6.533a1.3,1.3,0,0,1,1.295,1.3v6.56A1.3,1.3,0,0,1,280.54,1791.55Zm13.38,0h-6.533a1.3,1.3,0,0,1-1.3-1.3v-6.56a1.3,1.3,0,0,1,1.3-1.3h6.533a1.3,1.3,0,0,1,1.295,1.3v6.56A1.3,1.3,0,0,1,293.92,1791.55Zm22.167-46.56h-3.94a1.376,1.376,0,0,1-1.369-1.38v-11.24a1.374,1.374,0,0,1,1.369-1.37h3.94a1.373,1.373,0,0,1,1.368,1.37v11.24A1.375,1.375,0,0,1,316.087,1744.99Zm17.249-1.33-0.014-.14c-0.025-.23-0.058-0.45-0.1-0.67-0.008-.03-0.017-0.07-0.025-0.11-0.043-.2-0.093-0.39-0.151-0.59-0.011-.03-0.02-0.07-0.031-0.1-0.066-.21-0.142-0.42-0.225-0.62-0.018-.04-0.037-0.09-0.056-0.13-0.089-.2-0.183-0.41-0.289-0.6a6.165,6.165,0,0,0-.346-0.57c-0.037-.06-0.075-0.11-0.112-0.17q-0.142-.2-0.3-0.39c-0.041-.05-0.081-0.1-0.123-0.15-0.143-.17-0.29-0.34-0.446-0.5a7.825,7.825,0,0,0-1.136-.94c-0.184-.12-0.374-0.24-0.569-0.35l-0.175-.09a3.94,3.94,0,0,0-.447-0.21l-0.182-.09c-0.207-.08-0.416-0.16-0.632-0.23h0c-0.215-.07-0.435-0.12-0.658-0.17-0.066-.01-0.133-0.03-0.2-0.04-0.167-.03-0.336-0.06-0.507-0.08a1.465,1.465,0,0,1-.206-0.02c-0.232-.02-0.467-0.04-0.7-0.04h-6.29v6.95a3.337,3.337,0,0,1-3.323,3.34h-3.94a3.337,3.337,0,0,1-3.323-3.34v-6.95H285.333v6.95a3.336,3.336,0,0,1-3.323,3.34h-3.939a3.337,3.337,0,0,1-3.323-3.34v-6.95h-6.076c-0.238,0-.473.02-0.706,0.04a1.436,1.436,0,0,1-.206.02c-0.171.02-.339,0.05-0.506,0.08-0.067.01-.135,0.03-0.2,0.04-0.222.05-.442,0.1-0.657,0.17H266.39c-0.215.07-.425,0.15-0.632,0.23l-0.182.09a3.94,3.94,0,0,0-.447.21l-0.175.09c-0.194.11-.385,0.23-0.569,0.35a7.817,7.817,0,0,0-1.135.94c-0.157.16-.3,0.33-0.446,0.5q-0.063.075-.123,0.15-0.155.2-.295,0.39c-0.038.06-.076,0.11-0.112,0.17a6.172,6.172,0,0,0-.347.57c-0.105.19-.2,0.4-0.288,0.6-0.019.04-.038,0.09-0.056,0.13-0.084.2-.159,0.41-0.225,0.62-0.012.03-.021,0.07-0.031,0.1-0.058.2-.109,0.39-0.152,0.59-0.007.04-.017,0.08-0.024,0.11-0.044.22-.077,0.44-0.1,0.67-0.006.05-.01,0.1-0.014,0.14-0.022.24-.036,0.47-0.036,0.71h0v53.93h0c0,0.23.014,0.47,0.036,0.7,0,0.05.008,0.1,0.014,0.15,0.024,0.22.057,0.44,0.1,0.66,0.007,0.04.017,0.07,0.024,0.11,0.043,0.2.094,0.4,0.152,0.59,0.01,0.04.019,0.07,0.031,0.11,0.066,0.21.141,0.41,0.225,0.61a1.368,1.368,0,0,0,.056.13,6.4,6.4,0,0,0,.288.6c0.107,0.2.224,0.39,0.347,0.58,0.036,0.05.074,0.1,0.112,0.16,0.094,0.13.192,0.27,0.295,0.39a1.971,1.971,0,0,0,.123.16c0.142,0.17.289,0.33,0.446,0.49a7.817,7.817,0,0,0,1.135.94,6.545,6.545,0,0,0,.57.35l0.174,0.09c0.146,0.08.295,0.15,0.447,0.22,0.061,0.03.121,0.05,0.182,0.08,0.208,0.08.418,0.16,0.634,0.23h0c0.215,0.07.436,0.12,0.659,0.17a1.4,1.4,0,0,0,.2.04c0.167,0.03.335,0.06,0.506,0.08a1.436,1.436,0,0,0,.206.02c0.233,0.02.468,0.04,0.706,0.04H325.7c0.238,0,.473-0.02.7-0.04a1.409,1.409,0,0,0,.206-0.02c0.171-.02.34-0.05,0.507-0.08a1.388,1.388,0,0,0,.2-0.04c0.224-.05.444-0.1,0.66-0.17h0c0.216-.07.427-0.15,0.634-0.23,0.062-.03.122-0.05,0.182-0.08,0.152-.07.3-0.14,0.448-0.22l0.174-.09c0.194-.11.385-0.22,0.569-0.35a7.825,7.825,0,0,0,1.136-.94c0.156-.16.3-0.32,0.446-0.49a1.971,1.971,0,0,0,.123-0.16c0.1-.12.2-0.26,0.3-0.39,0.037-.06.075-0.11,0.112-0.16,0.122-.19.24-0.38,0.346-0.58a6.165,6.165,0,0,0,.289-0.6,1.368,1.368,0,0,0,.056-0.13c0.083-.2.159-0.4,0.225-0.61l0.031-.11c0.058-.19.108-0.39,0.151-0.59,0.008-.04.017-0.07,0.025-0.11,0.043-.22.076-0.44,0.1-0.66,0-.05.01-0.1,0.014-0.15,0.021-.23.036-0.47,0.036-0.7h0v-12.52l-6.138,7.17v5.35h0a1.659,1.659,0,0,1-.028.28c0,0.02-.012.05-0.019,0.08a1.536,1.536,0,0,1-.059.19c-0.009.02-.018,0.05-0.029,0.07a2.14,2.14,0,0,1-.127.24,1.841,1.841,0,0,1-.22.25,0.461,0.461,0,0,1-.08.07c-0.061.05-.125,0.09-0.192,0.14-0.034.02-.069,0.03-0.1,0.05a0.924,0.924,0,0,1-.222.09l-0.1.03a1.365,1.365,0,0,1-.351.05H268.672a1.379,1.379,0,0,1-.352-0.05l-0.1-.03a0.941,0.941,0,0,1-.222-0.09c-0.035-.02-0.069-0.03-0.1-0.05-0.068-.05-0.132-0.09-0.192-0.14a0.427,0.427,0,0,1-.08-0.07,1.775,1.775,0,0,1-.22-0.25,1.988,1.988,0,0,1-.127-0.24c-0.011-.02-0.02-0.05-0.03-0.07a1.975,1.975,0,0,1-.059-0.19c-0.006-.03-0.013-0.06-0.018-0.08a1.659,1.659,0,0,1-.028-0.28h0v-46.2h60.1v22.83l6.138-7.16v-23.4h0C333.372,1744.13,333.357,1743.9,333.336,1743.66Zm12.718,24.31-21.927,25.59a4.692,4.692,0,0,1-3.465,1.65H320.55a4.7,4.7,0,0,1-3.429-1.48l-12.248-12.98a3.921,3.921,0,0,1,.148-5.53,3.881,3.881,0,0,1,5.509.15l9.909,10.5,19.707-23a3.885,3.885,0,0,1,5.5-.42A3.926,3.926,0,0,1,346.054,1767.97Z" transform="translate(-261 -1731)"/>
</svg>