<svg xmlns="http://www.w3.org/2000/svg" width="67.97" height="77" viewBox="0 0 67.97 77">
  <metadata><?xpacket begin="﻿" id="W5M0MpCehiHzreSzNTczkc9d"?>
<x:xmpmeta xmlns:x="adobe:ns:meta/" x:xmptk="Adobe XMP Core 5.6-c142 79.160924, 2017/07/13-01:06:39        ">
   <rdf:RDF xmlns:rdf="http://www.w3.org/1999/02/22-rdf-syntax-ns#">
      <rdf:Description rdf:about=""/>
   </rdf:RDF>
</x:xmpmeta>                         
<?xpacket end="w"?></metadata>
<defs>
    <style>
      .cls-1 {
        fill: #333;
        fill-rule: evenodd;
      }
    </style>
  </defs>
  <path id="icon-accessibility" class="cls-1" d="M1583.7,6275.24a3.212,3.212,0,0,0-4.24-1.6l-6.98,3.13-10.31-22.82h-22.44l-0.25-4.76,16.94-.46a3.185,3.185,0,0,0-.09-6.37h-0.08l-17.11.47-0.74-14.07a7.191,7.191,0,1,0-6.45-.53l0.93,17.61c0,0.11-.01.23-0.01,0.35s0.03,0.25.05,0.38l0.73,13.75h24.37l11.25,24.89,12.83-5.76A3.173,3.173,0,0,0,1583.7,6275.24Zm-24.28-6.18a18.543,18.543,0,1,1-28.56-17.34l-0.37-7.06a24.851,24.851,0,1,0,32.95,33.3Z" transform="translate(-1516 -6215)"/>
</svg>