<svg xmlns="http://www.w3.org/2000/svg" width="30" height="28.188" viewBox="0 0 30 28.188">
  <metadata><?xpacket begin="﻿" id="W5M0MpCehiHzreSzNTczkc9d"?>
<x:xmpmeta xmlns:x="adobe:ns:meta/" x:xmptk="Adobe XMP Core 5.6-c142 79.160924, 2017/07/13-01:06:39        ">
   <rdf:RDF xmlns:rdf="http://www.w3.org/1999/02/22-rdf-syntax-ns#">
      <rdf:Description rdf:about=""/>
   </rdf:RDF>
</x:xmpmeta>
<?xpacket end="w"?></metadata>
<defs>
    <style>
      .cls-1 {
        fill: #fff;
        fill-rule: evenodd;
      }
    </style>
  </defs>
  <path id="social_icon_-_snapchat" data-name="social icon - snapchat" class="cls-1" d="M1468.19,241.784c-0.08,0-.15,0-0.23-0.006h0q-0.075.006-.15,0.006a6.409,6.409,0,0,1-3.93-1.553,5.77,5.77,0,0,0-2.28-1.163,7.437,7.437,0,0,0-1.2-.1,8.261,8.261,0,0,0-1.66.188,3.492,3.492,0,0,1-.61.089,0.389,0.389,0,0,1-.43-0.307c-0.07-.234-0.12-0.461-0.17-0.681a1.068,1.068,0,0,0-.45-0.948c-2.76-.427-3.55-1.008-3.72-1.42a0.38,0.38,0,0,1-.04-0.177,0.308,0.308,0,0,1,.26-0.324c4.24-.7,6.14-5.034,6.22-5.218a0.014,0.014,0,0,1,.01-0.015,1.611,1.611,0,0,0,.15-1.358,2.871,2.871,0,0,0-1.87-1.187c-0.16-.048-0.3-0.094-0.42-0.14-1.25-.5-1.35-1-1.31-1.264a1.2,1.2,0,0,1,1.16-.75,0.794,0.794,0,0,1,.34.069,3.632,3.632,0,0,0,1.51.4,1.221,1.221,0,0,0,.9-0.288c-0.01-.287-0.03-0.587-0.05-0.9-0.13-2-.28-4.5.35-5.92a7.678,7.678,0,0,1,7.13-4.595l0.52-.006h0.07a7.7,7.7,0,0,1,7.14,4.6c0.63,1.424.48,3.918,0.35,5.922l-0.01.087c-0.01.279-.03,0.551-0.05,0.81a1.268,1.268,0,0,0,.83.287h0a3.734,3.734,0,0,0,1.42-.4,1.116,1.116,0,0,1,.45-0.088,1.349,1.349,0,0,1,.5.1l0.01,0a0.92,0.92,0,0,1,.71.762c0.01,0.294-.21.736-1.31,1.17-0.12.045-.26,0.091-0.42,0.14a2.871,2.871,0,0,0-1.87,1.187,1.609,1.609,0,0,0,.15,1.357,0.015,0.015,0,0,1,.01.016c0.08,0.184,1.98,4.518,6.22,5.218a0.306,0.306,0,0,1,.26.324,0.378,0.378,0,0,1-.04.177c-0.17.41-.96,0.99-3.72,1.417a1.023,1.023,0,0,0-.45.945c-0.05.224-.1,0.444-0.17,0.676a0.365,0.365,0,0,1-.39.3h-0.04a3.59,3.59,0,0,1-.62-0.078,8.178,8.178,0,0,0-1.65-.176,7.344,7.344,0,0,0-1.2.1,5.778,5.778,0,0,0-2.28,1.161A6.4,6.4,0,0,1,1468.19,241.784Zm0.1-27.257a7.365,7.365,0,0,1,6.85,4.414c0.61,1.353.45,3.805,0.33,5.775-0.02.313-.04,0.616-0.06,0.905v0.124l0.08,0.093a1.483,1.483,0,0,0,1.05.392h0.02a4.112,4.112,0,0,0,1.55-.425,0.73,0.73,0,0,1,.31-0.058,1.041,1.041,0,0,1,.39.075l0.02,0.007a0.658,0.658,0,0,1,.5.476c0.01,0.1-.07.46-1.12,0.875-0.1.04-.24,0.083-0.39,0.133a3.06,3.06,0,0,0-2.06,1.361,1.893,1.893,0,0,0,.15,1.617c0.13,0.289,2.08,4.68,6.46,5.4a0.187,0.187,0,0,1-.01.07c-0.08.175-.55,0.779-3.49,1.233-0.46.071-.57,0.587-0.71,1.186a5.614,5.614,0,0,1-.16.655c-0.02.068-.02,0.072-0.09,0.072h-0.04a3.275,3.275,0,0,1-.56-0.072,8.42,8.42,0,0,0-1.71-.181,7.623,7.623,0,0,0-1.25.1,6.005,6.005,0,0,0-2.41,1.215,6.152,6.152,0,0,1-3.75,1.5c-0.08,0-.15,0-0.22-0.006h-0.01l-0.02,0c-0.04,0-.08.005-0.13,0.005a6.152,6.152,0,0,1-3.75-1.5,6.005,6.005,0,0,0-2.41-1.215,7.623,7.623,0,0,0-1.25-.1,8.362,8.362,0,0,0-1.71.192,3.538,3.538,0,0,1-.56.084c-0.11,0-.11-0.006-0.13-0.083a5.755,5.755,0,0,1-.16-0.661c-0.14-.6-0.25-1.118-0.71-1.189-2.94-.454-3.41-1.06-3.49-1.235a0.19,0.19,0,0,1-.01-0.071c4.38-.723,6.33-5.113,6.45-5.4a1.863,1.863,0,0,0,.16-1.616,3.057,3.057,0,0,0-2.06-1.362c-0.15-.05-0.29-0.093-0.39-0.133-0.89-.35-1.16-0.7-1.12-0.917a0.913,0.913,0,0,1,.85-0.5,0.542,0.542,0,0,1,.21.039,3.936,3.936,0,0,0,1.64.428,1.541,1.541,0,0,0,1.14-.4l0.08-.093v-0.123c-0.02-.289-0.04-0.592-0.06-0.9-0.12-1.97-.28-4.421.33-5.774a7.353,7.353,0,0,1,6.84-4.412l0.52-.005h0.07m0-.622h-0.07l-0.52,0a7.982,7.982,0,0,0-7.41,4.78c-0.67,1.493-.51,4.027-0.38,6.063,0.02,0.24.03,0.49,0.04,0.731a1.161,1.161,0,0,1-.58.127,3.355,3.355,0,0,1-1.38-.369,1.114,1.114,0,0,0-.47-0.1,1.481,1.481,0,0,0-1.46,1c-0.08.432,0.11,1.063,1.5,1.611,0.12,0.05.28,0.1,0.43,0.148a2.654,2.654,0,0,1,1.68,1.012,1.363,1.363,0,0,1-.14,1.1c-0.01.01-.01,0.02-0.02,0.03-0.07.178-1.91,4.363-5.98,5.034a0.616,0.616,0,0,0-.52.649,0.69,0.69,0,0,0,.06.279c0.31,0.715,1.6,1.239,3.95,1.6a2.848,2.848,0,0,1,.21.71c0.05,0.225.1,0.458,0.17,0.7a0.691,0.691,0,0,0,.73.53,3.734,3.734,0,0,0,.67-0.095,7.979,7.979,0,0,1,1.6-.182,7.16,7.16,0,0,1,1.15.1,5.47,5.47,0,0,1,2.15,1.109,6.77,6.77,0,0,0,4.11,1.611c0.05,0,.11,0,0.16-0.006s0.13,0.006.22,0.006a6.777,6.777,0,0,0,4.11-1.611,5.443,5.443,0,0,1,2.15-1.109,7.066,7.066,0,0,1,1.15-.1,8.071,8.071,0,0,1,1.6.17,3.675,3.675,0,0,0,.67.084h0.04a0.674,0.674,0,0,0,.69-0.52c0.07-.24.12-0.466,0.17-0.7a2.833,2.833,0,0,1,.21-0.707c2.35-.365,3.64-0.888,3.95-1.6a0.7,0.7,0,0,0,.06-0.281,0.615,0.615,0,0,0-.52-0.648c-4.07-.672-5.91-4.856-5.98-5.034-0.01-.01-0.01-0.02-0.02-0.03a1.324,1.324,0,0,1-.14-1.1,2.656,2.656,0,0,1,1.67-1.012c0.17-.051.32-0.1,0.44-0.148,1.02-.4,1.53-0.894,1.52-1.465a1.219,1.219,0,0,0-.92-1.047h0a1.688,1.688,0,0,0-.62-0.119,1.418,1.418,0,0,0-.58.116,3.469,3.469,0,0,1-1.29.366,1.2,1.2,0,0,1-.51-0.125c0.02-.206.03-0.419,0.04-0.641l0.01-.087c0.13-2.038.29-4.574-.38-6.067a7.992,7.992,0,0,0-7.42-4.783h0Z" transform="translate(-1453 -213.906)"/>
</svg>
