<svg xmlns="http://www.w3.org/2000/svg" width="38.97" height="39" viewBox="0 0 38.97 39">
  <metadata><?xpacket begin="﻿" id="W5M0MpCehiHzreSzNTczkc9d"?>
<x:xmpmeta xmlns:x="adobe:ns:meta/" x:xmptk="Adobe XMP Core 5.6-c142 79.160924, 2017/07/13-01:06:39        ">
   <rdf:RDF xmlns:rdf="http://www.w3.org/1999/02/22-rdf-syntax-ns#">
      <rdf:Description rdf:about=""/>
   </rdf:RDF>
</x:xmpmeta>              
<?xpacket end="w"?></metadata>
<defs>
    <style>
      .cls-1 {
        fill: #fafafa;
        fill-rule: evenodd;
      }
    </style>
  </defs>
  <path id="icon_-_pricing" data-name="icon - pricing" class="cls-1" d="M1449.4,171h0Zm-11.13,13.582a2.46,2.46,0,0,0,2.78,2.319c2.79,0,7.15-2.286,10.2-5.342,3-3.009,3.63-7.226,1.48-9.375A4.659,4.659,0,0,0,1449.4,171v0.774h0a3.915,3.915,0,0,1,2.77.941l0.01,0.009,0.01,0.009a4.167,4.167,0,0,1,.96,3.7,8.474,8.474,0,0,1-2.45,4.581,21.081,21.081,0,0,1-5.66,4.01,9.94,9.94,0,0,1-3.99,1.1,2.707,2.707,0,0,1-1.07-.182,1.208,1.208,0,0,1-.44-0.293,1.886,1.886,0,0,1-.48-1.032,1.756,1.756,0,0,1,1.18,1.1,2.727,2.727,0,0,0,.67.075,8.579,8.579,0,0,0,3.16-.77l-0.73-3.477a0.313,0.313,0,0,0-.24-0.237l-3.34-.645a19.77,19.77,0,0,1,4.11-6.22,7.743,7.743,0,0,1,5.53-2.672V171h0a8.584,8.584,0,0,0-6.08,2.9,20.457,20.457,0,0,0-4.34,6.615l-5.29-1.023a1.611,1.611,0,0,0-1.45.454l-16.77,16.95a1.611,1.611,0,0,0,0,2.28l10.41,10.355a1.6,1.6,0,0,0,2.27-.021l16.76-16.942a1.624,1.624,0,0,0,.44-1.479l-0.96-4.533a9.7,9.7,0,0,1-3.48.787,4.593,4.593,0,0,1-.87-0.081A1.742,1.742,0,1,1,1438.27,184.584Z" transform="translate(-1415 -171)"/>
</svg>