<svg xmlns="http://www.w3.org/2000/svg" width="108.969" height="116" viewBox="0 0 108.969 116">
  <metadata><?xpacket begin="﻿" id="W5M0MpCehiHzreSzNTczkc9d"?>
<x:xmpmeta xmlns:x="adobe:ns:meta/" x:xmptk="Adobe XMP Core 5.6-c142 79.160924, 2017/07/13-01:06:39        ">
   <rdf:RDF xmlns:rdf="http://www.w3.org/1999/02/22-rdf-syntax-ns#">
      <rdf:Description rdf:about=""/>
   </rdf:RDF>
</x:xmpmeta>
                                                                                                    
                                                                                                    
                                                                                                    
                                                                                                    
                                                                                                    
                                                                                                    
                                                                                                    
                                                                                                    
                                                                                                    
                                                                                                    
                                                                                                    
                                                                                                    
                                                                                                    
                                                                                                    
                                                                                                    
                                                                                                    
                                                                                                    
                                                                                                    
                                                                                                    
                                                                                                    
                           
<?xpacket end="w"?></metadata>
<defs>
    <style>
      .cls-1 {
        fill: #0ab1b7;
        fill-rule: evenodd;
      }
    </style>
  </defs>
  <path id="icon-topup" class="cls-1" d="M511.539,3789.37a11.243,11.243,0,0,0-.368-1.19c-0.149-.36-0.343-0.7-0.528-1.05-0.135-.25-0.257-0.52-0.411-0.76a10.93,10.93,0,0,0-.863-1.14c-0.118-.15-0.227-0.3-0.351-0.43a11.388,11.388,0,0,0-1.225-1.14c-0.075-.06-0.146-0.12-0.221-0.18a10.8,10.8,0,0,0-1.568-1.01c-0.028-.01-0.056-0.03-0.084-0.04a11.121,11.121,0,0,0-3.879-1.19h0a10.845,10.845,0,0,0-1.283-.13h-70.13a11.273,11.273,0,0,0-11.241,11.28v39.33a11.282,11.282,0,0,0,11.241,11.29h70.13A11.282,11.282,0,0,0,512,3831.72v-39.33a11.374,11.374,0,0,0-.22-2.19C511.723,3789.92,511.617,3789.65,511.539,3789.37Zm-6.655,42.35a4.131,4.131,0,0,1-4.126,4.14h-70.13a4.13,4.13,0,0,1-4.125-4.14v-3h78.381v3Zm0-17.28H426.5v-22.05a4.13,4.13,0,0,1,4.125-4.14h70.13a4.131,4.131,0,0,1,4.126,4.14v22.05Zm-87.869-22.05a13.654,13.654,0,0,1,13.613-13.66h70.13a13.51,13.51,0,0,1,3.136.38,10.974,10.974,0,0,0,1.481-3.1,11.256,11.256,0,0,0-.91-8.59l-18.742-34.54a11.238,11.238,0,0,0-9.876-5.89h0a11.231,11.231,0,0,0-5.372,1.38l-61.591,33.66a11.312,11.312,0,0,0-4.5,15.3l12.628,23.28v-8.22Zm47.872-51.48,9.6-5.25a3.074,3.074,0,0,1,1.481-.38h0a3.093,3.093,0,0,1,2.721,1.62l3.749,6.91a3.12,3.12,0,0,1-1.239,4.22l-9.6,5.25a3.089,3.089,0,0,1-4.2-1.24l-3.749-6.91A3.12,3.12,0,0,1,464.887,3740.91Z" transform="translate(-403.031 -3727)"/>
</svg>
