<svg xmlns="http://www.w3.org/2000/svg" width="95" height="99" viewBox="0 0 95 99">
  <metadata><?xpacket begin="﻿" id="W5M0MpCehiHzreSzNTczkc9d"?>
<x:xmpmeta xmlns:x="adobe:ns:meta/" x:xmptk="Adobe XMP Core 5.6-c142 79.160924, 2017/07/13-01:06:39        ">
   <rdf:RDF xmlns:rdf="http://www.w3.org/1999/02/22-rdf-syntax-ns#">
      <rdf:Description rdf:about=""/>
   </rdf:RDF>
</x:xmpmeta>
                                                                                                    
                                                                                                    
                                                                                                    
                                                                                                    
                                                                                                    
                                                                                                    
                                                                                                    
                                                                                                    
                                                                                                    
                                                                                                    
                                                                                                    
                                                                                                    
                                                                                                    
                                                                                                    
                                                                                                    
                                                                                                    
                                                                                                    
                                                                                                    
                                                                                                    
                                                                                                    
                           
<?xpacket end="w"?></metadata>
<defs>
    <style>
      .cls-1 {
        fill: #333;
        fill-rule: evenodd;
      }
    </style>
  </defs>
  <path class="cls-1" d="M1150.83,8542.71l-2.88,3.95a7.569,7.569,0,0,0,1.98.26,7.813,7.813,0,0,0,4.32-1.29Zm-5.29-4.6a6.459,6.459,0,0,1,4.44-2.6,6.282,6.282,0,0,1,.75-0.04,6.4,6.4,0,0,1,4.18,1.54l2.94,2.51c0.01-.19.03-0.37,0.03-0.56a7.95,7.95,0,1,0-15.9,0,8.058,8.058,0,0,0,.64,3.15Zm58.37,72.3-6.34-37.79a5.644,5.644,0,0,0-6.49-4.63l-2.23.38-35.11-29.99a4.63,4.63,0,0,0-6.75.79l-30.09,41.29-3.2.54a5.644,5.644,0,0,0-4.62,6.49l6.34,37.8a5.645,5.645,0,0,0,5.55,4.71,5.839,5.839,0,0,0,.93-0.08l77.39-13.01h0A5.654,5.654,0,0,0,1203.91,8610.41Zm-54.19-69.24a1.256,1.256,0,0,1,1.83-.22l32.96,28.15-62.84,10.56Zm-27.82,81.89-5.97-35.57,75.16-12.64,5.97,35.57Zm76.27-12.82h0Zm-57-8.67a9.113,9.113,0,0,1-.07,3.46,8.394,8.394,0,0,1-1.31,2.99,8.205,8.205,0,0,1-2.43,2.25,9.345,9.345,0,0,1-3.43,1.23,9.471,9.471,0,0,1-3.65-.08,8.207,8.207,0,0,1-3.02-1.35,8.065,8.065,0,0,1-2.2-2.41,8.887,8.887,0,0,1-1.17-3.26,9.165,9.165,0,0,1,.07-3.47,8.049,8.049,0,0,1,3.76-5.22,9.411,9.411,0,0,1,3.43-1.23,9.218,9.218,0,0,1,3.64.08,8.134,8.134,0,0,1,3.02,1.35,8.044,8.044,0,0,1,2.19,2.41A8.838,8.838,0,0,1,1141.17,8601.57Zm-3.95.65a7.092,7.092,0,0,0-.68-2.17,4.756,4.756,0,0,0-1.19-1.53,4.075,4.075,0,0,0-1.64-.81,5.665,5.665,0,0,0-3.97.65,4.107,4.107,0,0,0-1.3,1.29,4.911,4.911,0,0,0-.65,1.83,7.279,7.279,0,0,0,.05,2.27,7.157,7.157,0,0,0,.68,2.18,4.756,4.756,0,0,0,1.19,1.53,3.972,3.972,0,0,0,1.65.8,5.184,5.184,0,0,0,2.05.04,5.044,5.044,0,0,0,1.91-.69,3.883,3.883,0,0,0,1.3-1.28,4.742,4.742,0,0,0,.65-1.83A7.347,7.347,0,0,0,1137.22,8602.22Zm10.57,1.11,0.91,5.56-3.86.64-2.72-16.66,5.87-.96a9.855,9.855,0,0,1,3.09-.07,5.827,5.827,0,0,1,2.26.81,4.452,4.452,0,0,1,1.49,1.53,5.915,5.915,0,0,1,.73,2.08,6.381,6.381,0,0,1-.02,2.35,4.761,4.761,0,0,1-.93,1.98,5.7,5.7,0,0,1-1.9,1.5,9.5,9.5,0,0,1-2.91.91Zm-0.48-2.92,2.01-.32a2.5,2.5,0,0,0,2.39-3.2,3.337,3.337,0,0,0-.34-1.01,2.176,2.176,0,0,0-.66-0.72,2.361,2.361,0,0,0-.96-0.38,4.051,4.051,0,0,0-1.29.03l-2.01.32Zm20.54-11.75,0.49,2.98-6.83,1.11,0.63,3.89,5.23-.86,0.47,2.86-5.23.86,0.65,3.96,6.82-1.11,0.49,2.97-10.71,1.75-2.72-16.65Zm5.56-.88a1.686,1.686,0,0,1,.33.03,1.525,1.525,0,0,1,.29.14,2.818,2.818,0,0,1,.33.26l9.54,8.71c-0.09-.32-0.16-0.62-0.23-0.92s-0.11-.58-0.16-0.85l-1.43-8.81,3.4-.56,2.71,16.65-2.01.33a1.8,1.8,0,0,1-.77-0.01,1.607,1.607,0,0,1-.68-0.41l-9.46-8.63c0.07,0.28.14,0.56,0.2,0.84s0.11,0.53.15,0.78l1.45,8.92-3.4.56-2.71-16.65,2.03-.34A4.125,4.125,0,0,1,1173.41,8587.78Z" transform="translate(-1109 -8531)"/>
</svg>
